<?xml version="1.0" encoding="UTF-8" standalone="no"?>
<!-- Generator: Adobe Illustrator 23.0.1, SVG Export Plug-In . SVG Version: 6.00 Build 0)  -->

<svg
   version="1.1"
   x="0px"
   y="0px"
   viewBox="0 0 760.8 850.4"
   style="enable-background:new 0 0 760.8 850.4;"
   xml:space="preserve"
   id="svg293"
   sodipodi:docname="Titration-NaOH-vinager.svg"
   inkscape:version="1.3 (0e150ed6c4, 2023-07-21)"
   xmlns:inkscape="http://www.inkscape.org/namespaces/inkscape"
   xmlns:sodipodi="http://sodipodi.sourceforge.net/DTD/sodipodi-0.dtd"
   xmlns="http://www.w3.org/2000/svg"
   xmlns:svg="http://www.w3.org/2000/svg"><defs
   id="defs293"><rect
     x="54.249018"
     y="431.69993"
     width="160.45484"
     height="36.675393"
     id="rect295" /><rect
     x="565.79434"
     y="572.28894"
     width="144.40936"
     height="40.877781"
     id="rect294" /></defs><sodipodi:namedview
   id="namedview293"
   pagecolor="#ffffff"
   bordercolor="#000000"
   borderopacity="0.25"
   inkscape:showpageshadow="2"
   inkscape:pageopacity="0.0"
   inkscape:pagecheckerboard="0"
   inkscape:deskcolor="#d1d1d1"
   inkscape:zoom="1.3087794"
   inkscape:cx="482.89269"
   inkscape:cy="427.49756"
   inkscape:window-width="1920"
   inkscape:window-height="1001"
   inkscape:window-x="-9"
   inkscape:window-y="-9"
   inkscape:window-maximized="1"
   inkscape:current-layer="svg293" />&#10;<style
   type="text/css"
   id="style1">&#10;	.st0{fill:none;stroke:#000000;stroke-width:1.5;stroke-linecap:round;stroke-linejoin:round;stroke-miterlimit:10;}&#10;	.st1{fill:none;stroke:#000000;stroke-width:0.75;stroke-miterlimit:10;}&#10;	.st2{fill:none;stroke:#000000;stroke-width:0.75;stroke-linecap:round;stroke-linejoin:round;stroke-miterlimit:10;}&#10;	.st3{fill-opacity:0.2038;}&#10;	.st4{fill:none;stroke:#000000;stroke-width:0.78;stroke-linecap:round;stroke-linejoin:round;stroke-miterlimit:10;}&#10;	.st5{fill-opacity:0.4902;stroke:#000000;stroke-width:2;stroke-opacity:0.4902;}&#10;	.st6{fill:#FFFFFF;stroke:#000000;stroke-width:1.5;stroke-linecap:round;stroke-linejoin:round;stroke-miterlimit:10;}&#10;	.st7{fill:none;stroke:#000000;stroke-width:2;stroke-miterlimit:10;}&#10;	.st8{fill:none;stroke:#000000;stroke-width:1.9496;stroke-miterlimit:10;}&#10;	.st9{fill:none;stroke:#000000;stroke-width:2;stroke-linecap:round;stroke-linejoin:round;stroke-miterlimit:10;}&#10;	.st10{fill:#AAAAAA;stroke:#000000;stroke-width:2;stroke-miterlimit:10;}&#10;	.st11{fill:none;stroke:#000000;stroke-linecap:round;stroke-linejoin:round;stroke-miterlimit:10;}&#10;	.st12{fill:none;stroke:#000000;stroke-width:3;stroke-miterlimit:10;}&#10;</style>&#10;<g
   id="Stativ">&#10;	<path
   class="st0"
   d="M524.2,758.9H189.1v44.3h335.1V758.9"
   id="path1" />&#10;	<path
   class="st0"
   d="M472.7,758.9V168.2c0-3.2-4.2-5.8-9.5-5.8c-5.8,0-10.5,2.6-10.5,5.8V759L472.7,758.9z"
   id="path2" />&#10;</g>&#10;<g
   id="Magnetrührer">&#10;	<g
   id="Schalter">&#10;		<path
   class="st1"
   d="M265.7,735.8V703h-19.3v32.8H265.7z"
   id="path3" />&#10;		<path
   class="st2"
   d="M263.2,732h-14.3c-0.3,0-0.6-0.3-0.6-0.6v-23.9c0-0.3,0.3-0.6,0.6-0.6h14.3c0.3,0,0.6,0.3,0.6,0.6v23.9    C263.8,731.7,263.5,732,263.2,732z"
   id="path4" />&#10;		<g
   id="g5">&#10;			<path
   d="M256.1,708c0.8,0,1.4,0.4,1.4,0.8s-0.6,0.8-1.4,0.8c-0.8,0-1.4-0.4-1.4-0.8S255.3,708,256.1,708 M256.1,707.3     c-1.2,0-2.1,0.7-2.1,1.6c0,0.9,0.9,1.6,2.1,1.6s2.1-0.7,2.1-1.6S257.3,707.3,256.1,707.3L256.1,707.3z"
   id="path5" />&#10;		</g>&#10;		<line
   class="st2"
   x1="248.4"
   y1="710.8"
   x2="263.8"
   y2="710.8"
   id="line5" />&#10;		<g
   id="g7">&#10;			<path
   d="M254.3,697.2l1.7,4.3h-0.6l-0.5-1.3H253l-0.5,1.3H252l1.7-4.3H254.3z M254.6,699.7l-0.7-2h0l-0.7,2H254.6z"
   id="path6" />&#10;			<path
   d="M256.9,697.2l2.3,3.5h0v-3.5h0.5v4.3h-0.6l-2.2-3.4h0v3.4h-0.5v-4.3H256.9z"
   id="path7" />&#10;		</g>&#10;		<g
   id="g10">&#10;			<path
   d="M252.3,737.6l1.7,4.3h-0.6l-0.5-1.3h-1.8l-0.5,1.3H250l1.7-4.3H252.3z M252.7,740.2l-0.7-2h0l-0.7,2H252.7z"
   id="path8" />&#10;			<path
   d="M257.4,741.6c-0.3,0.3-0.7,0.4-1.2,0.4c-0.6,0-1-0.1-1.3-0.4c-0.3-0.3-0.5-0.7-0.5-1.3v-2.7h0.6v2.7     c0,0.4,0.1,0.7,0.3,0.9c0.2,0.2,0.5,0.3,0.9,0.3c0.4,0,0.6-0.1,0.8-0.3c0.2-0.2,0.3-0.5,0.3-0.9v-2.7h0.6v2.7     C257.8,740.9,257.7,741.3,257.4,741.6z"
   id="path9" />&#10;			<path
   d="M260.9,738.2c-0.2-0.1-0.4-0.2-0.7-0.2c-0.1,0-0.2,0-0.4,0c-0.1,0-0.2,0.1-0.3,0.1c-0.1,0.1-0.2,0.1-0.2,0.2     c-0.1,0.1-0.1,0.2-0.1,0.4c0,0.1,0,0.2,0.1,0.3s0.2,0.1,0.3,0.2c0.1,0.1,0.3,0.1,0.4,0.1c0.2,0,0.3,0.1,0.5,0.1s0.3,0.1,0.5,0.1     c0.2,0.1,0.3,0.1,0.4,0.2s0.2,0.2,0.3,0.3c0.1,0.1,0.1,0.3,0.1,0.5c0,0.2-0.1,0.4-0.2,0.6s-0.2,0.3-0.4,0.4     c-0.2,0.1-0.3,0.2-0.5,0.2c-0.2,0-0.4,0.1-0.6,0.1c-0.2,0-0.5,0-0.7-0.1c-0.2-0.1-0.4-0.2-0.6-0.3s-0.3-0.3-0.4-0.5     c-0.1-0.2-0.1-0.4-0.1-0.7h0.5c0,0.2,0,0.3,0.1,0.5c0.1,0.1,0.2,0.2,0.3,0.3c0.1,0.1,0.2,0.1,0.4,0.2c0.2,0,0.3,0.1,0.5,0.1     c0.1,0,0.3,0,0.4,0s0.2-0.1,0.4-0.1c0.1-0.1,0.2-0.1,0.3-0.2c0.1-0.1,0.1-0.2,0.1-0.4c0-0.1,0-0.3-0.1-0.4     c-0.1-0.1-0.2-0.2-0.3-0.2c-0.1-0.1-0.3-0.1-0.4-0.1s-0.3-0.1-0.5-0.1s-0.3-0.1-0.5-0.1s-0.3-0.1-0.4-0.2     c-0.1-0.1-0.2-0.2-0.3-0.3c-0.1-0.1-0.1-0.3-0.1-0.5c0-0.2,0-0.4,0.1-0.6c0.1-0.2,0.2-0.3,0.4-0.4s0.3-0.2,0.5-0.2     c0.2-0.1,0.4-0.1,0.6-0.1c0.2,0,0.4,0,0.6,0.1c0.2,0.1,0.4,0.1,0.5,0.2c0.1,0.1,0.3,0.3,0.3,0.4s0.1,0.4,0.1,0.6h-0.5     C261.2,738.6,261.1,738.4,260.9,738.2z"
   id="path10" />&#10;		</g>&#10;	</g>&#10;	<g
   id="Umdrehungsfrequenz">&#10;		<ellipse
   class="st2"
   cx="354.9"
   cy="718.9"
   rx="23.1"
   ry="23.1"
   id="ellipse10" />&#10;		<line
   class="st2"
   x1="354.9"
   y1="695.7"
   x2="354.9"
   y2="691.8"
   id="line10" />&#10;		<line
   class="st2"
   x1="371.3"
   y1="702.5"
   x2="374"
   y2="699.7"
   id="line11" />&#10;		<line
   class="st2"
   x1="378.1"
   y1="718.9"
   x2="381.9"
   y2="718.9"
   id="line12" />&#10;		<line
   class="st2"
   x1="371.3"
   y1="735.2"
   x2="374"
   y2="738"
   id="line13" />&#10;		<line
   class="st2"
   x1="338.6"
   y1="735.2"
   x2="335.8"
   y2="738"
   id="line14" />&#10;		<line
   class="st2"
   x1="331.8"
   y1="718.9"
   x2="327.9"
   y2="718.9"
   id="line15" />&#10;		<line
   class="st2"
   x1="335.1"
   y1="730.9"
   x2="366.9"
   y2="699.1"
   id="line16" />&#10;		<line
   class="st2"
   x1="374.7"
   y1="706.8"
   x2="342.9"
   y2="738.6"
   id="line17" />&#10;		<line
   class="st2"
   x1="370.3"
   y1="703.4"
   x2="362.6"
   y2="711.2"
   id="line18" />&#10;		<polyline
   class="st2"
   points="370.3,707.3 370.3,703.4 366.5,703.4   "
   id="polyline18" />&#10;		<path
   d="M353,686.5c0-0.2,0-0.4,0.1-0.7c0-0.2,0.1-0.4,0.2-0.6c0.1-0.2,0.2-0.4,0.3-0.5c0.1-0.1,0.3-0.3,0.5-0.3    c0.2-0.1,0.5-0.1,0.8-0.1c0.3,0,0.5,0,0.8,0.1c0.2,0.1,0.4,0.2,0.5,0.3c0.1,0.1,0.2,0.3,0.3,0.5c0.1,0.2,0.1,0.4,0.2,0.6    c0,0.2,0.1,0.4,0.1,0.7c0,0.2,0,0.4,0,0.6s0,0.4,0,0.6c0,0.2,0,0.4-0.1,0.7c0,0.2-0.1,0.4-0.2,0.6s-0.2,0.4-0.3,0.5    s-0.3,0.3-0.5,0.3c-0.2,0.1-0.5,0.1-0.8,0.1c-0.3,0-0.5,0-0.8-0.1c-0.2-0.1-0.4-0.2-0.5-0.3s-0.2-0.3-0.3-0.5    c-0.1-0.2-0.1-0.4-0.2-0.6c0-0.2-0.1-0.4-0.1-0.7c0-0.2,0-0.4,0-0.6S353,686.7,353,686.5z M353.8,687.8c0,0.3,0.1,0.5,0.1,0.7    c0.1,0.2,0.2,0.4,0.3,0.6c0.2,0.2,0.4,0.2,0.7,0.2s0.5-0.1,0.7-0.2s0.3-0.4,0.3-0.6c0.1-0.2,0.1-0.5,0.1-0.7c0-0.3,0-0.5,0-0.7    c0-0.1,0-0.3,0-0.5c0-0.2,0-0.3,0-0.5s-0.1-0.3-0.1-0.5c0-0.2-0.1-0.3-0.2-0.4s-0.2-0.2-0.3-0.3c-0.1-0.1-0.3-0.1-0.5-0.1    s-0.4,0-0.5,0.1c-0.1,0.1-0.2,0.2-0.3,0.3c-0.1,0.1-0.2,0.3-0.2,0.4c0,0.2-0.1,0.3-0.1,0.5s0,0.3,0,0.5c0,0.2,0,0.3,0,0.5    C353.8,687.3,353.8,687.5,353.8,687.8z"
   id="path18" />&#10;		<g
   id="g20">&#10;			<path
   d="M376.5,694.2c0.1-0.2,0.2-0.5,0.3-0.6s0.4-0.3,0.6-0.4c0.2-0.1,0.5-0.2,0.8-0.2c0.2,0,0.5,0,0.7,0.1     c0.2,0.1,0.4,0.2,0.6,0.3c0.2,0.1,0.3,0.3,0.4,0.5c0.1,0.2,0.1,0.4,0.1,0.7c0,0.3,0,0.5-0.1,0.7s-0.2,0.4-0.3,0.5     c-0.1,0.2-0.3,0.3-0.4,0.4c-0.2,0.1-0.3,0.2-0.5,0.4c-0.2,0.1-0.4,0.2-0.5,0.3c-0.2,0.1-0.3,0.2-0.5,0.3s-0.3,0.2-0.4,0.4     c-0.1,0.1-0.2,0.3-0.2,0.5h2.9v0.6h-3.7c0-0.3,0.1-0.6,0.2-0.9s0.2-0.4,0.4-0.6c0.1-0.2,0.3-0.3,0.5-0.5c0.2-0.1,0.4-0.3,0.6-0.4     c0.2-0.1,0.5-0.3,0.6-0.4c0.2-0.1,0.3-0.3,0.5-0.4c0.1-0.1,0.2-0.3,0.3-0.4c0.1-0.1,0.1-0.3,0.1-0.5c0-0.2,0-0.3-0.1-0.4     s-0.1-0.2-0.2-0.3c-0.1-0.1-0.2-0.2-0.3-0.2s-0.3-0.1-0.4-0.1c-0.2,0-0.4,0-0.5,0.1c-0.1,0.1-0.3,0.2-0.3,0.3     c-0.1,0.1-0.2,0.3-0.2,0.5s-0.1,0.3-0.1,0.5h-0.7C376.4,694.7,376.4,694.4,376.5,694.2z"
   id="path19" />&#10;			<path
   d="M380.8,695.2c0-0.2,0-0.4,0.1-0.7c0-0.2,0.1-0.4,0.2-0.6c0.1-0.2,0.2-0.4,0.3-0.5c0.1-0.1,0.3-0.3,0.5-0.3     c0.2-0.1,0.5-0.1,0.8-0.1c0.3,0,0.5,0,0.8,0.1c0.2,0.1,0.4,0.2,0.5,0.3c0.1,0.1,0.2,0.3,0.3,0.5c0.1,0.2,0.1,0.4,0.2,0.6     c0,0.2,0.1,0.4,0.1,0.7c0,0.2,0,0.4,0,0.6s0,0.4,0,0.6c0,0.2,0,0.4-0.1,0.7c0,0.2-0.1,0.4-0.2,0.6s-0.2,0.4-0.3,0.5     s-0.3,0.3-0.5,0.3c-0.2,0.1-0.5,0.1-0.8,0.1c-0.3,0-0.5,0-0.8-0.1c-0.2-0.1-0.4-0.2-0.5-0.3s-0.2-0.3-0.3-0.5s-0.1-0.4-0.2-0.6     c0-0.2-0.1-0.4-0.1-0.7c0-0.2,0-0.4,0-0.6S380.8,695.4,380.8,695.2z M381.6,696.6c0,0.3,0.1,0.5,0.1,0.7s0.2,0.4,0.3,0.6     c0.2,0.2,0.4,0.2,0.7,0.2s0.5-0.1,0.7-0.2s0.3-0.4,0.3-0.6s0.1-0.5,0.1-0.7c0-0.3,0-0.5,0-0.7c0-0.1,0-0.3,0-0.5     c0-0.2,0-0.3,0-0.5c0-0.2-0.1-0.3-0.1-0.5s-0.1-0.3-0.2-0.4s-0.2-0.2-0.3-0.3c-0.1-0.1-0.3-0.1-0.5-0.1c-0.2,0-0.4,0-0.5,0.1     c-0.1,0.1-0.2,0.2-0.3,0.3s-0.2,0.3-0.2,0.4s-0.1,0.3-0.1,0.5c0,0.2,0,0.3,0,0.5c0,0.2,0,0.3,0,0.5     C381.5,696.1,381.5,696.3,381.6,696.6z"
   id="path20" />&#10;		</g>&#10;		<g
   id="g22">&#10;			<path
   d="M388.2,719.8v0.6h-0.8v1.3h-0.6v-1.3h-2.5v-0.7l2.6-3.7h0.5v3.7H388.2z M386.8,717L386.8,717l-1.9,2.8h1.9V717z"
   id="path21" />&#10;			<path
   d="M388.9,718.3c0-0.2,0-0.4,0.1-0.7s0.1-0.4,0.2-0.6c0.1-0.2,0.2-0.4,0.3-0.5c0.1-0.1,0.3-0.3,0.5-0.3     c0.2-0.1,0.5-0.1,0.8-0.1c0.3,0,0.5,0,0.8,0.1c0.2,0.1,0.4,0.2,0.5,0.3c0.1,0.1,0.2,0.3,0.3,0.5c0.1,0.2,0.1,0.4,0.2,0.6     s0.1,0.4,0.1,0.7c0,0.2,0,0.4,0,0.6s0,0.4,0,0.6c0,0.2,0,0.4-0.1,0.7c0,0.2-0.1,0.4-0.2,0.6s-0.2,0.4-0.3,0.5s-0.3,0.3-0.5,0.3     c-0.2,0.1-0.5,0.1-0.8,0.1c-0.3,0-0.5,0-0.8-0.1c-0.2-0.1-0.4-0.2-0.5-0.3s-0.2-0.3-0.3-0.5s-0.1-0.4-0.2-0.6     c0-0.2-0.1-0.4-0.1-0.7c0-0.2,0-0.4,0-0.6S388.9,718.5,388.9,718.3z M389.6,719.6c0,0.3,0.1,0.5,0.1,0.7s0.2,0.4,0.3,0.6     c0.2,0.2,0.4,0.2,0.7,0.2s0.5-0.1,0.7-0.2s0.3-0.4,0.3-0.6c0.1-0.2,0.1-0.5,0.1-0.7c0-0.3,0-0.5,0-0.7c0-0.1,0-0.3,0-0.5     s0-0.3,0-0.5s-0.1-0.3-0.1-0.5c0-0.2-0.1-0.3-0.2-0.4s-0.2-0.2-0.3-0.3c-0.1-0.1-0.3-0.1-0.5-0.1s-0.4,0-0.5,0.1     c-0.1,0.1-0.2,0.2-0.3,0.3c-0.1,0.1-0.2,0.3-0.2,0.4s-0.1,0.3-0.1,0.5s0,0.3,0,0.5s0,0.3,0,0.5     C389.6,719.1,389.6,719.4,389.6,719.6z"
   id="path22" />&#10;		</g>&#10;		<g
   id="g24">&#10;			<path
   d="M378.3,740c-0.2-0.2-0.4-0.2-0.7-0.2c-0.3,0-0.5,0.1-0.7,0.2c-0.2,0.1-0.3,0.3-0.4,0.5s-0.2,0.4-0.2,0.7     c0,0.3-0.1,0.5-0.1,0.7l0,0c0.2-0.3,0.4-0.5,0.6-0.6c0.2-0.1,0.5-0.2,0.8-0.2c0.3,0,0.5,0,0.7,0.1c0.2,0.1,0.4,0.2,0.5,0.4     c0.1,0.2,0.3,0.4,0.3,0.6c0.1,0.2,0.1,0.5,0.1,0.7c0,0.2,0,0.4-0.1,0.6c-0.1,0.2-0.2,0.4-0.3,0.6c-0.1,0.2-0.3,0.3-0.6,0.5     s-0.5,0.2-0.9,0.2c-0.4,0-0.8-0.1-1-0.3c-0.3-0.2-0.5-0.4-0.6-0.7s-0.2-0.6-0.3-0.9s-0.1-0.6-0.1-0.9c0-0.4,0-0.8,0.1-1.1     c0.1-0.4,0.2-0.7,0.3-1c0.2-0.3,0.4-0.5,0.6-0.7s0.6-0.3,1-0.3c0.5,0,0.8,0.1,1.1,0.4c0.3,0.2,0.4,0.6,0.5,1.1h-0.7     C378.6,740.3,378.5,740.1,378.3,740z M377.1,741.9c-0.1,0.1-0.3,0.2-0.4,0.3c-0.1,0.1-0.2,0.3-0.2,0.4s-0.1,0.3-0.1,0.5     c0,0.2,0,0.3,0.1,0.5c0.1,0.2,0.1,0.3,0.2,0.4s0.2,0.2,0.4,0.3c0.1,0.1,0.3,0.1,0.5,0.1c0.2,0,0.4,0,0.5-0.1     c0.1-0.1,0.3-0.2,0.4-0.3c0.1-0.1,0.2-0.3,0.2-0.4c0.1-0.2,0.1-0.3,0.1-0.5c0-0.2,0-0.3-0.1-0.5c0-0.2-0.1-0.3-0.2-0.4     c-0.1-0.1-0.2-0.2-0.4-0.3s-0.3-0.1-0.5-0.1S377.2,741.8,377.1,741.9z"
   id="path23" />&#10;			<path
   d="M380.1,741.4c0-0.2,0-0.4,0.1-0.7c0-0.2,0.1-0.4,0.2-0.6c0.1-0.2,0.2-0.4,0.3-0.5c0.1-0.1,0.3-0.3,0.5-0.3     c0.2-0.1,0.5-0.1,0.8-0.1c0.3,0,0.5,0,0.8,0.1c0.2,0.1,0.4,0.2,0.5,0.3c0.1,0.1,0.2,0.3,0.3,0.5c0.1,0.2,0.1,0.4,0.2,0.6     c0,0.2,0.1,0.4,0.1,0.7c0,0.2,0,0.4,0,0.6s0,0.4,0,0.6c0,0.2,0,0.4-0.1,0.7c0,0.2-0.1,0.4-0.2,0.6s-0.2,0.4-0.3,0.5     s-0.3,0.3-0.5,0.3c-0.2,0.1-0.5,0.1-0.8,0.1c-0.3,0-0.5,0-0.8-0.1c-0.2-0.1-0.4-0.2-0.5-0.3s-0.2-0.3-0.3-0.5s-0.1-0.4-0.2-0.6     c0-0.2-0.1-0.4-0.1-0.7c0-0.2,0-0.4,0-0.6S380.1,741.6,380.1,741.4z M380.8,742.7c0,0.3,0.1,0.5,0.1,0.7s0.2,0.4,0.3,0.6     c0.2,0.2,0.4,0.2,0.7,0.2s0.5-0.1,0.7-0.2s0.3-0.4,0.3-0.6s0.1-0.5,0.1-0.7c0-0.3,0-0.5,0-0.7c0-0.1,0-0.3,0-0.5     c0-0.2,0-0.3,0-0.5c0-0.2-0.1-0.3-0.1-0.5s-0.1-0.3-0.2-0.4s-0.2-0.2-0.3-0.3c-0.1-0.1-0.3-0.1-0.5-0.1c-0.2,0-0.4,0-0.5,0.1     c-0.1,0.1-0.2,0.2-0.3,0.3s-0.2,0.3-0.2,0.4s-0.1,0.3-0.1,0.5c0,0.2,0,0.3,0,0.5c0,0.2,0,0.3,0,0.5     C380.8,742.2,380.8,742.5,380.8,742.7z"
   id="path24" />&#10;		</g>&#10;		<g
   id="g26">&#10;			<path
   d="M326.3,740c0.1-0.2,0.2-0.3,0.4-0.5s0.3-0.2,0.5-0.3c0.2-0.1,0.4-0.1,0.6-0.1c0.3,0,0.6,0,0.8,0.1s0.4,0.2,0.5,0.3     c0.1,0.1,0.2,0.3,0.3,0.5c0.1,0.2,0.1,0.4,0.1,0.5c0,0.3-0.1,0.5-0.2,0.7c-0.1,0.2-0.3,0.4-0.6,0.5c0.3,0.1,0.6,0.3,0.8,0.5     c0.2,0.2,0.2,0.5,0.2,0.9c0,0.3,0,0.5-0.1,0.7c-0.1,0.2-0.2,0.4-0.4,0.5c-0.2,0.1-0.4,0.3-0.6,0.3c-0.2,0.1-0.5,0.1-0.7,0.1     c-0.3,0-0.5,0-0.8-0.1c-0.2-0.1-0.4-0.2-0.6-0.3c-0.2-0.1-0.3-0.3-0.4-0.5s-0.1-0.5-0.1-0.8c0-0.3,0.1-0.6,0.3-0.9     c0.2-0.2,0.4-0.4,0.7-0.5c-0.2-0.1-0.4-0.3-0.6-0.5c-0.1-0.2-0.2-0.5-0.2-0.7C326.2,740.3,326.2,740.1,326.3,740z M327,744     c0.2,0.2,0.5,0.3,0.9,0.3c0.2,0,0.3,0,0.5-0.1c0.1-0.1,0.3-0.1,0.4-0.2s0.2-0.2,0.2-0.3c0.1-0.1,0.1-0.3,0.1-0.4     c0-0.2,0-0.3-0.1-0.4s-0.1-0.2-0.3-0.3c-0.1-0.1-0.2-0.2-0.4-0.2c-0.1-0.1-0.3-0.1-0.5-0.1c-0.2,0-0.3,0-0.5,0.1     s-0.3,0.1-0.4,0.2c-0.1,0.1-0.2,0.2-0.3,0.3c-0.1,0.1-0.1,0.3-0.1,0.4C326.7,743.5,326.8,743.8,327,744z M327,741     c0.1,0.1,0.1,0.2,0.2,0.3c0.1,0.1,0.2,0.1,0.3,0.2s0.3,0.1,0.4,0.1c0.3,0,0.5-0.1,0.7-0.2c0.2-0.2,0.3-0.4,0.3-0.7     s-0.1-0.5-0.3-0.7c-0.2-0.1-0.4-0.2-0.7-0.2c-0.1,0-0.3,0-0.4,0.1c-0.1,0-0.2,0.1-0.3,0.2c-0.1,0.1-0.2,0.2-0.2,0.3     s-0.1,0.2-0.1,0.4C326.9,740.8,326.9,740.9,327,741z"
   id="path25" />&#10;			<path
   d="M330.5,741.4c0-0.2,0-0.4,0.1-0.7c0-0.2,0.1-0.4,0.2-0.6c0.1-0.2,0.2-0.4,0.3-0.5c0.1-0.1,0.3-0.3,0.5-0.3     c0.2-0.1,0.5-0.1,0.8-0.1c0.3,0,0.5,0,0.8,0.1c0.2,0.1,0.4,0.2,0.5,0.3c0.1,0.1,0.2,0.3,0.3,0.5c0.1,0.2,0.1,0.4,0.2,0.6     c0,0.2,0.1,0.4,0.1,0.7c0,0.2,0,0.4,0,0.6s0,0.4,0,0.6c0,0.2,0,0.4-0.1,0.7c0,0.2-0.1,0.4-0.2,0.6s-0.2,0.4-0.3,0.5     s-0.3,0.3-0.5,0.3c-0.2,0.1-0.5,0.1-0.8,0.1c-0.3,0-0.5,0-0.8-0.1c-0.2-0.1-0.4-0.2-0.5-0.3s-0.2-0.3-0.3-0.5     c-0.1-0.2-0.1-0.4-0.2-0.6c0-0.2-0.1-0.4-0.1-0.7c0-0.2,0-0.4,0-0.6S330.5,741.6,330.5,741.4z M331.2,742.7     c0,0.3,0.1,0.5,0.1,0.7c0.1,0.2,0.2,0.4,0.3,0.6c0.2,0.2,0.4,0.2,0.7,0.2s0.5-0.1,0.7-0.2s0.3-0.4,0.3-0.6     c0.1-0.2,0.1-0.5,0.1-0.7c0-0.3,0-0.5,0-0.7c0-0.1,0-0.3,0-0.5c0-0.2,0-0.3,0-0.5s-0.1-0.3-0.1-0.5c0-0.2-0.1-0.3-0.2-0.4     s-0.2-0.2-0.3-0.3c-0.1-0.1-0.3-0.1-0.5-0.1s-0.4,0-0.5,0.1c-0.1,0.1-0.2,0.2-0.3,0.3c-0.1,0.1-0.2,0.3-0.2,0.4     c0,0.2-0.1,0.3-0.1,0.5s0,0.3,0,0.5c0,0.2,0,0.3,0,0.5C331.2,742.2,331.2,742.5,331.2,742.7z"
   id="path26" />&#10;		</g>&#10;		<g
   id="g29">&#10;			<path
   d="M314.6,721.7v-4.1h-1.5v-0.5c0.2,0,0.4,0,0.6,0s0.3-0.1,0.5-0.2c0.1-0.1,0.3-0.2,0.4-0.3c0.1-0.1,0.2-0.3,0.2-0.5h0.5     v5.7H314.6z"
   id="path27" />&#10;			<path
   d="M317.2,718.3c0-0.2,0-0.4,0.1-0.7c0-0.2,0.1-0.4,0.2-0.6c0.1-0.2,0.2-0.4,0.3-0.5s0.3-0.3,0.5-0.3     c0.2-0.1,0.5-0.1,0.8-0.1c0.3,0,0.5,0,0.8,0.1c0.2,0.1,0.4,0.2,0.5,0.3s0.2,0.3,0.3,0.5s0.1,0.4,0.2,0.6c0,0.2,0.1,0.4,0.1,0.7     c0,0.2,0,0.4,0,0.6c0,0.2,0,0.4,0,0.6c0,0.2,0,0.4-0.1,0.7c0,0.2-0.1,0.4-0.2,0.6s-0.2,0.4-0.3,0.5c-0.1,0.1-0.3,0.3-0.5,0.3     s-0.5,0.1-0.8,0.1c-0.3,0-0.5,0-0.8-0.1c-0.2-0.1-0.4-0.2-0.5-0.3c-0.1-0.1-0.2-0.3-0.3-0.5c-0.1-0.2-0.1-0.4-0.2-0.6     c0-0.2-0.1-0.4-0.1-0.7c0-0.2,0-0.4,0-0.6C317.2,718.7,317.2,718.5,317.2,718.3z M318,719.6c0,0.3,0.1,0.5,0.1,0.7     c0.1,0.2,0.2,0.4,0.3,0.6c0.2,0.2,0.4,0.2,0.7,0.2s0.5-0.1,0.7-0.2s0.3-0.4,0.3-0.6c0.1-0.2,0.1-0.5,0.1-0.7c0-0.3,0-0.5,0-0.7     c0-0.1,0-0.3,0-0.5c0-0.2,0-0.3,0-0.5s-0.1-0.3-0.1-0.5c0-0.2-0.1-0.3-0.2-0.4c-0.1-0.1-0.2-0.2-0.3-0.3s-0.3-0.1-0.5-0.1     s-0.4,0-0.5,0.1s-0.2,0.2-0.3,0.3c-0.1,0.1-0.2,0.3-0.2,0.4c0,0.2-0.1,0.3-0.1,0.5s0,0.3,0,0.5c0,0.2,0,0.3,0,0.5     C317.9,719.1,317.9,719.4,318,719.6z"
   id="path28" />&#10;			<path
   d="M321.7,718.3c0-0.2,0-0.4,0.1-0.7c0-0.2,0.1-0.4,0.2-0.6c0.1-0.2,0.2-0.4,0.3-0.5s0.3-0.3,0.5-0.3     c0.2-0.1,0.5-0.1,0.8-0.1c0.3,0,0.5,0,0.8,0.1c0.2,0.1,0.4,0.2,0.5,0.3s0.2,0.3,0.3,0.5s0.1,0.4,0.2,0.6c0,0.2,0.1,0.4,0.1,0.7     c0,0.2,0,0.4,0,0.6c0,0.2,0,0.4,0,0.6c0,0.2,0,0.4-0.1,0.7c0,0.2-0.1,0.4-0.2,0.6s-0.2,0.4-0.3,0.5c-0.1,0.1-0.3,0.3-0.5,0.3     s-0.5,0.1-0.8,0.1c-0.3,0-0.5,0-0.8-0.1c-0.2-0.1-0.4-0.2-0.5-0.3c-0.1-0.1-0.2-0.3-0.3-0.5c-0.1-0.2-0.1-0.4-0.2-0.6     c0-0.2-0.1-0.4-0.1-0.7c0-0.2,0-0.4,0-0.6C321.7,718.7,321.7,718.5,321.7,718.3z M322.4,719.6c0,0.3,0.1,0.5,0.1,0.7     c0.1,0.2,0.2,0.4,0.3,0.6c0.2,0.2,0.4,0.2,0.7,0.2s0.5-0.1,0.7-0.2s0.3-0.4,0.3-0.6c0.1-0.2,0.1-0.5,0.1-0.7c0-0.3,0-0.5,0-0.7     c0-0.1,0-0.3,0-0.5c0-0.2,0-0.3,0-0.5s-0.1-0.3-0.1-0.5c0-0.2-0.1-0.3-0.2-0.4c-0.1-0.1-0.2-0.2-0.3-0.3s-0.3-0.1-0.5-0.1     s-0.4,0-0.5,0.1s-0.2,0.2-0.3,0.3c-0.1,0.1-0.2,0.3-0.2,0.4c0,0.2-0.1,0.3-0.1,0.5s0,0.3,0,0.5c0,0.2,0,0.3,0,0.5     C322.4,719.1,322.4,719.4,322.4,719.6z"
   id="path29" />&#10;		</g>&#10;		<g
   id="g34">&#10;			<path
   d="M369.8,687.4c-0.4,0.4-1.1,0.6-1.9,0.6c-0.8,0-1.5-0.2-1.9-0.6c-0.5-0.4-0.7-1-0.7-1.9v-4.1h0.9v4.1c0,0.6,0.2,1,0.5,1.3     s0.7,0.4,1.3,0.4c0.5,0,1-0.1,1.2-0.4c0.3-0.3,0.4-0.7,0.4-1.3v-4.1h0.9v4.1C370.4,686.4,370.2,687,369.8,687.4z"
   id="path30" />&#10;			<path
   d="M374.2,681.3l-2.7,6.7h-0.6l2.7-6.7H374.2z"
   id="path31" />&#10;			<path
   d="M375.4,683.2v0.7h0c0.3-0.5,0.8-0.8,1.5-0.8c0.3,0,0.5,0.1,0.8,0.2s0.4,0.3,0.5,0.6c0.2-0.3,0.4-0.4,0.6-0.6     c0.3-0.1,0.5-0.2,0.8-0.2c0.2,0,0.4,0,0.6,0.1c0.2,0.1,0.4,0.1,0.5,0.2c0.1,0.1,0.2,0.2,0.3,0.4s0.1,0.4,0.1,0.6v3.4h-0.8v-3.1     c0-0.1,0-0.3,0-0.4c0-0.1-0.1-0.2-0.1-0.3c-0.1-0.1-0.2-0.2-0.3-0.2c-0.1-0.1-0.3-0.1-0.5-0.1c-0.4,0-0.7,0.1-0.9,0.3     c-0.2,0.2-0.3,0.5-0.3,0.9v2.9h-0.8v-3.1c0-0.2,0-0.3,0-0.4s-0.1-0.2-0.1-0.3c-0.1-0.1-0.2-0.2-0.3-0.2c-0.1-0.1-0.3-0.1-0.4-0.1     c-0.2,0-0.4,0-0.6,0.1c-0.2,0.1-0.3,0.2-0.4,0.3s-0.2,0.3-0.2,0.4c0,0.1-0.1,0.2-0.1,0.3v2.9h-0.8v-4.7H375.4z"
   id="path32" />&#10;			<path
   d="M382.4,682.4v-0.9h0.8v0.9H382.4z M383.1,683.2v4.7h-0.8v-4.7H383.1z"
   id="path33" />&#10;			<path
   d="M385,683.2v0.7h0c0.3-0.6,0.8-0.8,1.5-0.8c0.3,0,0.6,0,0.8,0.1s0.4,0.2,0.5,0.4c0.1,0.2,0.2,0.3,0.3,0.5     c0.1,0.2,0.1,0.4,0.1,0.7v3.1h-0.8v-3.2c0-0.3-0.1-0.5-0.3-0.7s-0.4-0.3-0.7-0.3c-0.2,0-0.4,0-0.6,0.1c-0.2,0.1-0.3,0.2-0.4,0.3     s-0.2,0.3-0.3,0.5c-0.1,0.2-0.1,0.4-0.1,0.6v2.6h-0.8v-4.7H385z"
   id="path34" />&#10;		</g>&#10;	</g>&#10;	<g
   id="g39">&#10;		<path
   class="st0"
   d="M393.5,672.6h-155c-3.8,0-6.9,3.4-6.9,7.7V742c0,4.2,3.1,7.7,6.9,7.7h155c3.8,0,6.9-3.4,6.9-7.7v-61.7    C400.4,676.1,397.3,672.6,393.5,672.6"
   id="path35" />&#10;		<path
   class="st2"
   d="M390.7,675.6H241.2c-3.7,0-6.7,3.2-6.7,7.1v57c0,3.9,3,7.1,6.7,7.1h149.6c3.7,0,6.7-3.2,6.7-7.1v-57    C397.4,678.7,394.4,675.6,390.7,675.6"
   id="path36" />&#10;		<path
   class="st0"
   d="M378,664.9c0,4.3,3.8,7.7,8.5,7.7"
   id="path37" />&#10;		<path
   class="st0"
   d="M253.9,664.9c0,4.3-3.8,7.7-8.5,7.7"
   id="path38" />&#10;		<rect
   x="247"
   y="749.7"
   class="st0"
   width="15.4"
   height="7.7"
   id="rect38" />&#10;		<rect
   x="369.5"
   y="749.7"
   class="st0"
   width="15.4"
   height="7.7"
   id="rect39" />&#10;		<path
   class="st0"
   d="M381.5,646.4v18.5h-131v-18.5c0-2.6,2.1-4.6,4.6-4.6h121.8C379.4,641.7,381.5,643.8,381.5,646.4"
   id="path39" />&#10;	</g>&#10;</g>&#10;<g
   id="Becherglas">&#10;	<path
   id="Probelösung"
   class="st3"
   d="M275.6,565.7v65.7c0,4.9,3.8,8.9,8.4,8.9h63c4.7,0,8.5-4,8.5-8.9v-65.7H275.6z" />&#10;	<g
   id="Skala_1_">&#10;		<path
   class="st4"
   d="M315.7,560.3h8.9"
   id="path40" />&#10;		<path
   class="st4"
   d="M315.7,579.6h8.9"
   id="path41" />&#10;		<path
   class="st4"
   d="M315.7,599h8.9"
   id="path42" />&#10;		<path
   class="st4"
   d="M315.7,618.3h8.9"
   id="path43" />&#10;		<path
   class="st4"
   d="M315.7,560.3v58.1"
   id="path44" />&#10;		<g
   id="g46">&#10;			<path
   d="M327.8,562.4c-0.2,0-0.4,0-0.5-0.1c-0.2-0.1-0.3-0.1-0.4-0.2c-0.1-0.1-0.2-0.2-0.3-0.4c-0.1-0.2-0.1-0.3-0.1-0.5     c0-0.2,0.1-0.4,0.2-0.6s0.3-0.3,0.5-0.3v0c-0.2-0.1-0.3-0.2-0.4-0.3c-0.1-0.1-0.1-0.3-0.1-0.5c0-0.3,0.1-0.6,0.3-0.8     c0.2-0.2,0.5-0.3,0.9-0.3c0.4,0,0.7,0.1,0.9,0.3c0.2,0.2,0.3,0.4,0.3,0.8c0,0.2,0,0.3-0.1,0.5c-0.1,0.1-0.2,0.2-0.4,0.3v0     c0.2,0.1,0.4,0.2,0.5,0.3s0.2,0.4,0.2,0.6c0,0.2,0,0.4-0.1,0.5s-0.2,0.3-0.3,0.4s-0.3,0.2-0.4,0.2     C328.2,562.3,328,562.4,327.8,562.4z M327.8,561.9c0.2,0,0.4-0.1,0.5-0.2c0.1-0.1,0.2-0.3,0.2-0.5c0-0.2-0.1-0.4-0.2-0.5     c-0.1-0.1-0.3-0.2-0.5-0.2s-0.4,0.1-0.5,0.2c-0.1,0.1-0.2,0.3-0.2,0.5c0,0.2,0.1,0.4,0.2,0.5     C327.4,561.8,327.6,561.9,327.8,561.9z M327.8,558.9c-0.2,0-0.3,0-0.4,0.2c-0.1,0.1-0.2,0.2-0.2,0.4c0,0.2,0.1,0.3,0.2,0.4     c0.1,0.1,0.3,0.1,0.4,0.1c0.2,0,0.3,0,0.4-0.1c0.1-0.1,0.2-0.2,0.2-0.4c0-0.2-0.1-0.3-0.2-0.4C328.1,558.9,328,558.9,327.8,558.9     z"
   id="path45" />&#10;			<path
   d="M330.9,558.4c0.3,0,0.5,0.1,0.7,0.2c0.2,0.1,0.3,0.3,0.4,0.5s0.2,0.4,0.2,0.6c0,0.2,0.1,0.5,0.1,0.7s0,0.4-0.1,0.7     c0,0.2-0.1,0.5-0.2,0.6s-0.2,0.4-0.4,0.5c-0.2,0.1-0.4,0.2-0.7,0.2c-0.3,0-0.5-0.1-0.7-0.2c-0.2-0.1-0.3-0.3-0.4-0.5     s-0.2-0.4-0.2-0.6c0-0.2-0.1-0.5-0.1-0.7s0-0.4,0.1-0.7c0-0.2,0.1-0.4,0.2-0.6s0.2-0.4,0.4-0.5     C330.4,558.4,330.6,558.4,330.9,558.4z M330.9,561.8c0.1,0,0.2,0,0.3-0.1c0.1-0.1,0.2-0.2,0.2-0.3c0.1-0.1,0.1-0.3,0.1-0.5     s0-0.4,0-0.6c0-0.2,0-0.4,0-0.6s-0.1-0.3-0.1-0.5c-0.1-0.1-0.1-0.2-0.2-0.3c-0.1-0.1-0.2-0.1-0.3-0.1c-0.1,0-0.3,0-0.3,0.1     s-0.2,0.2-0.2,0.3s-0.1,0.3-0.1,0.5s0,0.4,0,0.6c0,0.2,0,0.4,0,0.6s0.1,0.3,0.1,0.5s0.1,0.2,0.2,0.3S330.7,561.8,330.9,561.8z"
   id="path46" />&#10;		</g>&#10;		<g
   id="g48">&#10;			<path
   d="M328.5,578.8c0-0.2-0.1-0.3-0.2-0.4c-0.1-0.1-0.2-0.1-0.4-0.1c-0.1,0-0.2,0-0.3,0.1c-0.1,0-0.2,0.1-0.2,0.2     c-0.1,0.1-0.1,0.1-0.1,0.2s-0.1,0.2-0.1,0.3c0,0.1,0,0.2,0,0.3c0,0.1,0,0.2,0,0.3l0,0c0.1-0.2,0.2-0.3,0.3-0.3s0.3-0.1,0.5-0.1     c0.2,0,0.4,0,0.5,0.1c0.2,0.1,0.3,0.2,0.4,0.3c0.1,0.1,0.2,0.3,0.2,0.4c0.1,0.2,0.1,0.3,0.1,0.5c0,0.2,0,0.4-0.1,0.5     s-0.1,0.3-0.3,0.4s-0.2,0.2-0.4,0.3c-0.2,0.1-0.3,0.1-0.5,0.1c-0.3,0-0.5-0.1-0.7-0.2c-0.2-0.1-0.3-0.2-0.4-0.4s-0.2-0.4-0.2-0.6     c0-0.2-0.1-0.5-0.1-0.8c0-0.2,0-0.5,0.1-0.7c0-0.2,0.1-0.4,0.2-0.6s0.3-0.3,0.4-0.5s0.4-0.2,0.7-0.2c0.2,0,0.3,0,0.4,0.1     c0.1,0.1,0.3,0.1,0.4,0.2s0.2,0.2,0.3,0.3c0.1,0.1,0.1,0.3,0.1,0.4H328.5z M327.9,581.2c0.1,0,0.2,0,0.3-0.1     c0.1,0,0.2-0.1,0.2-0.2c0.1-0.1,0.1-0.2,0.1-0.3c0-0.1,0-0.2,0-0.3c0-0.1,0-0.2,0-0.3c0-0.1-0.1-0.2-0.1-0.2s-0.1-0.1-0.2-0.2     c-0.1,0-0.2-0.1-0.3-0.1s-0.2,0-0.3,0.1c-0.1,0-0.2,0.1-0.2,0.2c-0.1,0.1-0.1,0.2-0.1,0.2c0,0.1,0,0.2,0,0.3c0,0.1,0,0.2,0,0.3     c0,0.1,0.1,0.2,0.1,0.3s0.1,0.1,0.2,0.2C327.6,581.2,327.7,581.2,327.9,581.2z"
   id="path47" />&#10;			<path
   d="M330.9,577.7c0.3,0,0.5,0.1,0.7,0.2c0.2,0.1,0.3,0.3,0.4,0.5s0.2,0.4,0.2,0.6c0,0.2,0.1,0.5,0.1,0.7s0,0.4-0.1,0.7     c0,0.2-0.1,0.5-0.2,0.6s-0.2,0.4-0.4,0.5c-0.2,0.1-0.4,0.2-0.7,0.2c-0.3,0-0.5-0.1-0.7-0.2c-0.2-0.1-0.3-0.3-0.4-0.5     s-0.2-0.4-0.2-0.6c0-0.2-0.1-0.5-0.1-0.7s0-0.4,0.1-0.7c0-0.2,0.1-0.4,0.2-0.6s0.2-0.4,0.4-0.5     C330.4,577.8,330.6,577.7,330.9,577.7z M330.9,581.2c0.1,0,0.2,0,0.3-0.1c0.1-0.1,0.2-0.2,0.2-0.3c0.1-0.1,0.1-0.3,0.1-0.5     s0-0.4,0-0.6c0-0.2,0-0.4,0-0.6s-0.1-0.3-0.1-0.5c-0.1-0.1-0.1-0.2-0.2-0.3c-0.1-0.1-0.2-0.1-0.3-0.1c-0.1,0-0.3,0-0.3,0.1     s-0.2,0.2-0.2,0.3s-0.1,0.3-0.1,0.5s0,0.4,0,0.6c0,0.2,0,0.4,0,0.6s0.1,0.3,0.1,0.5s0.1,0.2,0.2,0.3S330.7,581.2,330.9,581.2z"
   id="path48" />&#10;		</g>&#10;		<g
   id="g50">&#10;			<path
   d="M329.2,600.1h-0.5v0.9h-0.6v-0.9h-1.7v-0.6l1.7-2.3h0.6v2.4h0.5V600.1z M326.9,599.6h1.2v-1.7h0L326.9,599.6z"
   id="path49" />&#10;			<path
   d="M330.9,597.1c0.3,0,0.5,0.1,0.7,0.2c0.2,0.1,0.3,0.3,0.4,0.5s0.2,0.4,0.2,0.6c0,0.2,0.1,0.5,0.1,0.7s0,0.4-0.1,0.7     c0,0.2-0.1,0.5-0.2,0.6s-0.2,0.4-0.4,0.5c-0.2,0.1-0.4,0.2-0.7,0.2c-0.3,0-0.5-0.1-0.7-0.2c-0.2-0.1-0.3-0.3-0.4-0.5     s-0.2-0.4-0.2-0.6c0-0.2-0.1-0.5-0.1-0.7s0-0.4,0.1-0.7c0-0.2,0.1-0.4,0.2-0.6s0.2-0.4,0.4-0.5     C330.4,597.1,330.6,597.1,330.9,597.1z M330.9,600.5c0.1,0,0.2,0,0.3-0.1c0.1-0.1,0.2-0.2,0.2-0.3c0.1-0.1,0.1-0.3,0.1-0.5     s0-0.4,0-0.6c0-0.2,0-0.4,0-0.6s-0.1-0.3-0.1-0.5c-0.1-0.1-0.1-0.2-0.2-0.3c-0.1-0.1-0.2-0.1-0.3-0.1c-0.1,0-0.3,0-0.3,0.1     s-0.2,0.2-0.2,0.3s-0.1,0.3-0.1,0.5s0,0.4,0,0.6c0,0.2,0,0.4,0,0.6s0.1,0.3,0.1,0.5s0.1,0.2,0.2,0.3S330.7,600.5,330.9,600.5z"
   id="path50" />&#10;		</g>&#10;		<g
   id="g52">&#10;			<path
   d="M329.1,620.4h-2.6c0-0.3,0.1-0.6,0.2-0.8s0.4-0.4,0.6-0.6c0.1-0.1,0.3-0.2,0.4-0.3c0.1-0.1,0.3-0.2,0.4-0.3     c0.1-0.1,0.2-0.2,0.3-0.3c0.1-0.1,0.1-0.2,0.1-0.4c0-0.1,0-0.1,0-0.2s0-0.2-0.1-0.2c0-0.1-0.1-0.1-0.2-0.2     c-0.1,0-0.2-0.1-0.3-0.1c-0.1,0-0.2,0-0.3,0.1s-0.1,0.1-0.2,0.2c0,0.1-0.1,0.2-0.1,0.3s0,0.2,0,0.4h-0.6c0-0.2,0-0.4,0.1-0.6     c0.1-0.2,0.1-0.3,0.3-0.5c0.1-0.1,0.3-0.2,0.4-0.3c0.2-0.1,0.4-0.1,0.6-0.1c0.2,0,0.4,0,0.6,0.1c0.2,0.1,0.3,0.2,0.4,0.3     c0.1,0.1,0.2,0.2,0.2,0.4c0,0.1,0.1,0.3,0.1,0.4c0,0.2,0,0.3-0.1,0.4c0,0.1-0.1,0.2-0.2,0.3s-0.2,0.2-0.3,0.3s-0.2,0.2-0.3,0.2     c-0.1,0.1-0.2,0.2-0.3,0.2c-0.1,0.1-0.2,0.1-0.3,0.2c-0.1,0.1-0.2,0.1-0.2,0.2c-0.1,0.1-0.1,0.2-0.1,0.2h1.9V620.4z"
   id="path51" />&#10;			<path
   d="M330.9,616.4c0.3,0,0.5,0.1,0.7,0.2c0.2,0.1,0.3,0.3,0.4,0.5s0.2,0.4,0.2,0.6c0,0.2,0.1,0.5,0.1,0.7s0,0.4-0.1,0.7     c0,0.2-0.1,0.5-0.2,0.6s-0.2,0.4-0.4,0.5c-0.2,0.1-0.4,0.2-0.7,0.2c-0.3,0-0.5-0.1-0.7-0.2c-0.2-0.1-0.3-0.3-0.4-0.5     s-0.2-0.4-0.2-0.6c0-0.2-0.1-0.5-0.1-0.7s0-0.4,0.1-0.7c0-0.2,0.1-0.4,0.2-0.6s0.2-0.4,0.4-0.5     C330.4,616.5,330.6,616.4,330.9,616.4z M330.9,619.9c0.1,0,0.2,0,0.3-0.1c0.1-0.1,0.2-0.2,0.2-0.3c0.1-0.1,0.1-0.3,0.1-0.5     s0-0.4,0-0.6c0-0.2,0-0.4,0-0.6s-0.1-0.3-0.1-0.5c-0.1-0.1-0.1-0.2-0.2-0.3c-0.1-0.1-0.2-0.1-0.3-0.1c-0.1,0-0.3,0-0.3,0.1     s-0.2,0.2-0.2,0.3s-0.1,0.3-0.1,0.5s0,0.4,0,0.6c0,0.2,0,0.4,0,0.6s0.1,0.3,0.1,0.5s0.1,0.2,0.2,0.3S330.7,619.9,330.9,619.9z"
   id="path52" />&#10;		</g>&#10;	</g>&#10;	<path
   class="st2"
   d="M265,542.5l4.4-3.6c2.5-2.1,5.7-3.2,9-3.2h80.2"
   id="path53" />&#10;	<path
   class="st0"
   d="M355.4,544.4l0.1,87c0,4.9-3.8,8.9-8.5,8.9h-63c-4.7,0-8.4-4-8.4-8.9l-0.1-80c0-4.8-4.7-8.8-10.4-8.8   c-1,0-3.4-0.5-1.7-1.9l4.9-4.1c2.5-2.1,5.7-3.2,9-3.2h81.3c0.6,0,1,0.5,1,1.2c0,0.6-0.4,1.2-1,1.2   C356.8,535.7,355.4,539.6,355.4,544.4"
   id="path54" />&#10;</g>&#10;<path
   id="Magnet_xAD_rühr_xAD_stäbchen"
   class="st5"
   d="M317.4,638.4c-7.5-0.5-11.6-2.1-9.2-3.6s10.3-2.3,17.8-1.8  s11.6,2.1,9.2,3.6C332.9,638,324.9,638.8,317.4,638.4" />&#10;<g
   id="Bürette">&#10;	<polygon
   id="Maßlösung"
   class="st3"
   points="333.1,465.3 347.8,464.2 348.1,462.9 349.7,445.3 349.5,141.7 330.8,141.7    330.9,445.3 332.4,462.9  " />&#10;	<path
   id="Bürettenrohr"
   class="st0"
   d="M330.7,44l0.2,401.3l1.5,17.6l3,11.1v29.7l3.5,25.1h2.8l3.5-25.1V474l3-11.1l1.5-17.6   l-0.2-401.5" />&#10;	<g
   id="Skala">&#10;		<path
   class="st2"
   d="M349.7,97.2h-4.8"
   id="path55" />&#10;		<path
   class="st2"
   d="M349.7,99.6h-4.8"
   id="path56" />&#10;		<path
   class="st2"
   d="M349.7,405.6h-4.8"
   id="path57" />&#10;		<path
   class="st2"
   d="M349.7,403.2h-4.8"
   id="path58" />&#10;		<path
   class="st2"
   d="M349.7,400.7h-4.8"
   id="path59" />&#10;		<path
   class="st2"
   d="M349.7,398.3h-4.8"
   id="path60" />&#10;		<path
   class="st2"
   d="M349.7,362.2h-4.8"
   id="path61" />&#10;		<path
   class="st2"
   d="M349.7,364.6h-4.8"
   id="path62" />&#10;		<path
   class="st2"
   d="M349.7,367h-4.8"
   id="path63" />&#10;		<path
   class="st2"
   d="M349.7,369.4h-4.8"
   id="path64" />&#10;		<path
   class="st2"
   d="M349.7,350.1h-4.8"
   id="path65" />&#10;		<path
   class="st2"
   d="M349.7,352.5h-4.8"
   id="path66" />&#10;		<path
   class="st2"
   d="M349.7,354.9h-4.8"
   id="path67" />&#10;		<path
   class="st2"
   d="M349.7,357.4h-4.8"
   id="path68" />&#10;		<path
   class="st2"
   d="M349.7,241.7h-4.8"
   id="path69" />&#10;		<path
   class="st2"
   d="M349.7,244.1h-4.8"
   id="path70" />&#10;		<path
   class="st2"
   d="M349.7,246.5h-4.8"
   id="path71" />&#10;		<path
   class="st2"
   d="M349.7,249h-4.8"
   id="path72" />&#10;		<path
   class="st2"
   d="M349.7,277.8h-4.8"
   id="path73" />&#10;		<path
   class="st2"
   d="M349.7,280.3h-4.8"
   id="path74" />&#10;		<path
   class="st2"
   d="M349.7,282.7h-4.8"
   id="path75" />&#10;		<path
   class="st2"
   d="M349.7,285.1h-4.8"
   id="path76" />&#10;		<path
   class="st2"
   d="M349.7,441.7h-4.8"
   id="path77" />&#10;		<path
   class="st2"
   d="M349.7,439.3h-4.8"
   id="path78" />&#10;		<path
   class="st2"
   d="M349.7,436.9h-4.8"
   id="path79" />&#10;		<path
   class="st2"
   d="M349.7,434.5h-4.8"
   id="path80" />&#10;		<path
   class="st2"
   d="M349.7,429.6h-4.8"
   id="path81" />&#10;		<path
   class="st2"
   d="M349.7,427.2h-4.8"
   id="path82" />&#10;		<path
   class="st2"
   d="M349.7,424.8h-4.8"
   id="path83" />&#10;		<path
   class="st2"
   d="M349.7,422.4h-4.8"
   id="path84" />&#10;		<path
   class="st2"
   d="M349.7,417.6h-4.8"
   id="path85" />&#10;		<path
   class="st2"
   d="M349.7,415.2h-4.8"
   id="path86" />&#10;		<path
   class="st2"
   d="M349.7,412.8h-4.8"
   id="path87" />&#10;		<path
   class="st2"
   d="M349.7,410.4h-4.8"
   id="path88" />&#10;		<path
   class="st2"
   d="M349.7,381.5h-4.8"
   id="path89" />&#10;		<path
   class="st2"
   d="M349.7,379.1h-4.8"
   id="path90" />&#10;		<path
   class="st2"
   d="M349.7,376.7h-4.8"
   id="path91" />&#10;		<path
   class="st2"
   d="M349.7,374.3h-4.8"
   id="path92" />&#10;		<path
   class="st2"
   d="M349.7,393.5h-4.8"
   id="path93" />&#10;		<path
   class="st2"
   d="M349.7,391.1h-4.8"
   id="path94" />&#10;		<path
   class="st2"
   d="M349.7,388.7h-4.8"
   id="path95" />&#10;		<path
   class="st2"
   d="M349.7,386.3h-4.8"
   id="path96" />&#10;		<path
   class="st2"
   d="M349.7,229.7h-4.8"
   id="path97" />&#10;		<path
   class="st2"
   d="M349.7,232.1h-4.8"
   id="path98" />&#10;		<path
   class="st2"
   d="M349.7,234.5h-4.8"
   id="path99" />&#10;		<path
   class="st2"
   d="M349.7,236.9h-4.8"
   id="path100" />&#10;		<path
   class="st2"
   d="M349.7,265.8h-4.8"
   id="path101" />&#10;		<path
   class="st2"
   d="M349.7,268.2h-4.8"
   id="path102" />&#10;		<path
   class="st2"
   d="M349.7,270.6h-4.8"
   id="path103" />&#10;		<path
   class="st2"
   d="M349.7,273h-4.8"
   id="path104" />&#10;		<path
   class="st2"
   d="M349.7,116.4h-4.8"
   id="path105" />&#10;		<path
   class="st2"
   d="M349.7,114h-4.8"
   id="path106" />&#10;		<path
   class="st2"
   d="M349.7,111.6h-4.8"
   id="path107" />&#10;		<path
   class="st2"
   d="M349.7,109.2h-4.8"
   id="path108" />&#10;		<path
   class="st2"
   d="M349.7,200.7h-4.8"
   id="path109" />&#10;		<path
   class="st2"
   d="M349.7,198.3h-4.8"
   id="path110" />&#10;		<path
   class="st2"
   d="M349.7,195.9h-4.8"
   id="path111" />&#10;		<path
   class="st2"
   d="M349.7,193.5h-4.8"
   id="path112" />&#10;		<path
   class="st2"
   d="M349.7,188.7h-4.8"
   id="path113" />&#10;		<path
   class="st2"
   d="M349.7,186.3h-4.8"
   id="path114" />&#10;		<path
   class="st2"
   d="M349.7,183.9h-4.8"
   id="path115" />&#10;		<path
   class="st2"
   d="M349.7,181.5h-4.8"
   id="path116" />&#10;		<path
   class="st2"
   d="M349.7,176.7h-4.8"
   id="path117" />&#10;		<path
   class="st2"
   d="M349.7,174.3h-4.8"
   id="path118" />&#10;		<path
   class="st2"
   d="M349.7,171.9h-4.8"
   id="path119" />&#10;		<path
   class="st2"
   d="M349.7,169.4h-4.8"
   id="path120" />&#10;		<path
   class="st2"
   d="M349.7,164.6h-4.8"
   id="path121" />&#10;		<path
   class="st2"
   d="M349.7,162.2h-4.8"
   id="path122" />&#10;		<path
   class="st2"
   d="M349.7,159.8h-4.8"
   id="path123" />&#10;		<path
   class="st2"
   d="M349.7,157.4h-4.8"
   id="path124" />&#10;		<path
   class="st2"
   d="M349.7,152.6h-4.8"
   id="path125" />&#10;		<path
   class="st2"
   d="M349.7,150.2h-4.8"
   id="path126" />&#10;		<path
   class="st2"
   d="M349.7,147.8h-4.8"
   id="path127" />&#10;		<path
   class="st2"
   d="M349.7,145.4h-4.8"
   id="path128" />&#10;		<path
   class="st2"
   d="M349.7,140.6h-4.8"
   id="path129" />&#10;		<path
   class="st2"
   d="M349.7,138.1h-4.8"
   id="path130" />&#10;		<path
   class="st2"
   d="M349.7,135.7h-4.8"
   id="path131" />&#10;		<path
   class="st2"
   d="M349.7,133.3h-4.8"
   id="path132" />&#10;		<path
   class="st2"
   d="M349.7,128.5h-4.8"
   id="path133" />&#10;		<path
   class="st2"
   d="M349.7,126.1h-4.8"
   id="path134" />&#10;		<path
   class="st2"
   d="M349.7,123.6h-4.8"
   id="path135" />&#10;		<path
   class="st2"
   d="M349.7,121.2h-4.8"
   id="path136" />&#10;		<path
   class="st2"
   d="M349.7,92.3h-4.8"
   id="path137" />&#10;		<path
   class="st2"
   d="M349.7,89.9h-4.8"
   id="path138" />&#10;		<path
   class="st2"
   d="M349.7,87.5h-4.8"
   id="path139" />&#10;		<path
   class="st2"
   d="M349.7,85.1h-4.8"
   id="path140" />&#10;		<path
   class="st2"
   d="M349.7,80.3h-4.8"
   id="path141" />&#10;		<path
   class="st2"
   d="M349.7,77.8h-4.8"
   id="path142" />&#10;		<path
   class="st2"
   d="M349.7,75.4h-4.8"
   id="path143" />&#10;		<path
   class="st2"
   d="M349.7,73.1h-4.8"
   id="path144" />&#10;		<path
   class="st2"
   d="M349.7,212.8h-4.8"
   id="path145" />&#10;		<path
   class="st2"
   d="M349.7,210.4h-4.8"
   id="path146" />&#10;		<path
   class="st2"
   d="M349.7,208h-4.8"
   id="path147" />&#10;		<path
   class="st2"
   d="M349.7,205.6h-4.8"
   id="path148" />&#10;		<path
   class="st2"
   d="M349.7,224.8h-4.8"
   id="path149" />&#10;		<path
   class="st2"
   d="M349.7,222.4h-4.8"
   id="path150" />&#10;		<path
   class="st2"
   d="M349.7,220h-4.8"
   id="path151" />&#10;		<path
   class="st2"
   d="M349.7,217.6h-4.8"
   id="path152" />&#10;		<path
   class="st2"
   d="M349.7,261h-4.8"
   id="path153" />&#10;		<path
   class="st2"
   d="M349.7,258.6h-4.8"
   id="path154" />&#10;		<path
   class="st2"
   d="M349.7,256.2h-4.8"
   id="path155" />&#10;		<path
   class="st2"
   d="M349.7,253.8h-4.8"
   id="path156" />&#10;		<path
   class="st2"
   d="M349.7,345.3h-4.8"
   id="path157" />&#10;		<path
   class="st2"
   d="M349.7,342.9h-4.8"
   id="path158" />&#10;		<path
   class="st2"
   d="M349.7,340.5h-4.8"
   id="path159" />&#10;		<path
   class="st2"
   d="M349.7,338.1h-4.8"
   id="path160" />&#10;		<path
   class="st2"
   d="M349.7,333.3h-4.8"
   id="path161" />&#10;		<path
   class="st2"
   d="M349.7,330.9h-4.8"
   id="path162" />&#10;		<path
   class="st2"
   d="M349.7,328.5h-4.8"
   id="path163" />&#10;		<path
   class="st2"
   d="M349.7,326.1h-4.8"
   id="path164" />&#10;		<path
   class="st2"
   d="M349.7,321.2h-4.8"
   id="path165" />&#10;		<path
   class="st2"
   d="M349.7,318.8h-4.8"
   id="path166" />&#10;		<path
   class="st2"
   d="M349.7,316.4h-4.8"
   id="path167" />&#10;		<path
   class="st2"
   d="M349.7,314h-4.8"
   id="path168" />&#10;		<path
   class="st2"
   d="M349.7,309.1h-4.8"
   id="path169" />&#10;		<path
   class="st2"
   d="M349.7,306.7h-4.8"
   id="path170" />&#10;		<path
   class="st2"
   d="M349.7,304.3h-4.8"
   id="path171" />&#10;		<path
   class="st2"
   d="M349.7,301.9h-4.8"
   id="path172" />&#10;		<path
   class="st2"
   d="M349.7,297.1h-4.8"
   id="path173" />&#10;		<path
   class="st2"
   d="M349.7,294.7h-4.8"
   id="path174" />&#10;		<path
   class="st2"
   d="M349.7,292.3h-4.8"
   id="path175" />&#10;		<path
   class="st2"
   d="M349.7,289.9h-4.8"
   id="path176" />&#10;		<path
   class="st2"
   d="M349.7,396.3h-9.6"
   id="path177" />&#10;		<path
   class="st2"
   d="M349.7,239.7h-14.5"
   id="path178" />&#10;		<path
   class="st2"
   d="M349.7,263.8h-14.5"
   id="path179" />&#10;		<path
   class="st2"
   d="M349.7,360.2h-14.5"
   id="path180" />&#10;		<path
   class="st2"
   d="M349.7,444.5h-9.6"
   id="path181" />&#10;		<path
   class="st2"
   d="M349.7,312h-14.5"
   id="path182" />&#10;		<path
   class="st2"
   d="M349.7,420.4h-9.6"
   id="path183" />&#10;		<path
   class="st2"
   d="M349.7,432.4h-14.5"
   id="path184" />&#10;		<path
   class="st2"
   d="M349.7,372.2h-9.6"
   id="path185" />&#10;		<path
   class="st2"
   d="M349.7,408.4h-14.5"
   id="path186" />&#10;		<path
   class="st2"
   d="M349.7,287.9h-14.5"
   id="path187" />&#10;		<path
   class="st2"
   d="M349.7,275.8h-9.6"
   id="path188" />&#10;		<path
   class="st2"
   d="M349.7,384.2h-14.5"
   id="path189" />&#10;		<path
   class="st2"
   d="M349.7,83.1h-9.6"
   id="path190" />&#10;		<path
   class="st2"
   d="M349.7,203.6h-9.6"
   id="path191" />&#10;		<path
   class="st2"
   d="M349.7,179.5h-9.6"
   id="path192" />&#10;		<path
   class="st2"
   d="M349.7,191.5h-14.5"
   id="path193" />&#10;		<path
   class="st2"
   d="M349.7,155.3h-9.6"
   id="path194" />&#10;		<path
   class="st2"
   d="M349.7,167.4h-14.5"
   id="path195" />&#10;		<path
   class="st2"
   d="M349.7,131.3h-9.6"
   id="path196" />&#10;		<path
   class="st2"
   d="M349.7,143.3h-14.5"
   id="path197" />&#10;		<path
   class="st2"
   d="M349.7,95.2h-14.5"
   id="path198" />&#10;		<path
   class="st2"
   d="M349.7,119.2h-14.5"
   id="path199" />&#10;		<path
   class="st2"
   d="M349.7,227.6h-9.6"
   id="path200" />&#10;		<path
   class="st2"
   d="M349.7,215.6h-14.5"
   id="path201" />&#10;		<path
   class="st2"
   d="M349.7,71h-14.5"
   id="path202" />&#10;		<path
   class="st2"
   d="M349.7,251.8h-9.6"
   id="path203" />&#10;		<path
   class="st2"
   d="M349.7,348.1h-9.6"
   id="path204" />&#10;		<path
   class="st2"
   d="M349.7,324h-9.6"
   id="path205" />&#10;		<path
   class="st2"
   d="M349.7,336.1h-14.5"
   id="path206" />&#10;		<path
   class="st2"
   d="M349.7,299.9h-9.6"
   id="path207" />&#10;		<path
   class="st2"
   d="M349.7,107.2h-9.6"
   id="path208" />&#10;		<path
   class="st2"
   d="M349.7,104.4h-4.8"
   id="path209" />&#10;		<path
   class="st2"
   d="M349.7,102h-4.8"
   id="path210" />&#10;	</g>&#10;	<g
   id="Bürettenhahn">&#10;		<polyline
   class="st0"
   points="369.6,484.4 368.2,478.2 368.2,469.4 369.6,463.2 375.3,463.2 376.8,471.9 376.8,475.2 375.3,484.4     369.6,484.4   "
   id="polyline210" />&#10;		<line
   class="st2"
   x1="368.9"
   y1="466.1"
   x2="375.8"
   y2="466.1"
   id="line210" />&#10;		<polyline
   class="st0"
   points="361.1,481.8 368.2,478.2 368.2,469.4 361.1,465.8 361.1,481.8   "
   id="polyline211" />&#10;		<path
   class="st0"
   d="M353,463.8l1.8-3.4h4.4l1.8,3.4v20l-1.8,3.4h-4.4l-1.8-3.4V463.8"
   id="path211" />&#10;		<polygon
   class="st6"
   points="327.4,465.8 353,463.8 353,483.8 327.4,481.8   "
   id="polygon211" />&#10;		<polyline
   class="st0"
   points="319.3,481.8 319.3,465.8 321.1,462.6 325.6,462.6 327.4,465.8 327.4,481.8 325.6,485 321.1,485     319.3,481.8   "
   id="polyline212" />&#10;		<polyline
   class="st0"
   points="319.3,465.8 317.5,465.8 316.3,466.6 316.3,465.5 303.7,466.7 303.7,480.9 316.3,482.1 316.3,481     317.5,481.8 319.3,481.8   "
   id="polyline213" />&#10;		<path
   class="st2"
   d="M316.3,466.9l-12.7,1.2"
   id="path213" />&#10;		<path
   class="st2"
   d="M303.7,476.5l12.7,0.6"
   id="path214" />&#10;		<path
   class="st2"
   d="M303.7,478.9l12.7,1.2"
   id="path215" />&#10;		<path
   class="st2"
   d="M303.7,473.5h12.7"
   id="path216" />&#10;		<path
   class="st2"
   d="M316.3,469.9l-12.7,0.6"
   id="path217" />&#10;		<path
   class="st2"
   d="M316.3,465.9V481"
   id="path218" />&#10;	</g>&#10;</g>&#10;<g
   id="pH-Sonde">&#10;	<path
   class="st7"
   d="M605.3,306.4v3.7c-3.5,115.9-310.5-116.2-314-0.2v313.6"
   id="path219" />&#10;	<path
   class="st8"
   d="M544.3,246.6h121.9v59.5H544.3V246.6z"
   id="path220" />&#10;	<circle
   class="st9"
   cx="291.3"
   cy="623.5"
   r="8.5"
   id="circle220" />&#10;	<path
   class="st7"
   d="M288.3,615.5c-2,0-3.6-4.9-3.6-10.9V355.1"
   id="path221" />&#10;	<path
   class="st7"
   d="M294.3,615.5c2,0,3.6-4.9,3.6-10.9V355.1"
   id="path222" />&#10;	<rect
   x="279.4"
   y="344.5"
   class="st10"
   width="22.7"
   height="34"
   id="rect222" />&#10;	<g
   id="g234">&#10;		<path
   d="M588.5,258.5v1.7h0c0.3-0.7,0.9-1.2,1.6-1.5c0.7-0.3,1.5-0.5,2.4-0.5c1,0,1.8,0.2,2.5,0.5c0.7,0.4,1.3,0.8,1.8,1.4    c0.5,0.6,0.8,1.3,1.1,2.1c0.2,0.8,0.4,1.6,0.4,2.5s-0.1,1.7-0.3,2.5c-0.2,0.8-0.6,1.5-1.1,2.1c-0.5,0.6-1.1,1-1.8,1.4    s-1.5,0.5-2.5,0.5c-0.3,0-0.6,0-1-0.1c-0.4-0.1-0.7-0.2-1.1-0.3c-0.4-0.1-0.7-0.3-1-0.6c-0.3-0.2-0.6-0.6-0.8-0.9h0v6.4h-2v-17.1    H588.5z M595.8,262.9c-0.2-0.6-0.4-1-0.7-1.5c-0.3-0.4-0.7-0.8-1.2-1c-0.5-0.3-1.1-0.4-1.7-0.4c-0.7,0-1.3,0.1-1.8,0.4    c-0.5,0.3-0.9,0.6-1.2,1.1s-0.5,0.9-0.7,1.5c-0.1,0.6-0.2,1.1-0.2,1.7c0,0.6,0.1,1.2,0.2,1.8c0.1,0.6,0.4,1.1,0.7,1.5    c0.3,0.4,0.7,0.8,1.2,1c0.5,0.3,1.1,0.4,1.8,0.4s1.3-0.1,1.8-0.4c0.5-0.3,0.9-0.6,1.1-1.1c0.3-0.4,0.5-1,0.6-1.5s0.2-1.2,0.2-1.8    C596,264,595.9,263.4,595.8,262.9z"
   id="path223" />&#10;		<path
   d="M603.2,253.8v7.4h9v-7.4h2.3v17.1h-2.3V263h-9v7.8h-2.3v-17.1H603.2z"
   id="path224" />&#10;		<path
   d="M624.5,263.3v1.9h-6.9v-1.9H624.5z"
   id="path225" />&#10;		<path
   d="M553.9,277.8l5.4,14.4l5.4-14.4h3.1v17.1h-2.2v-14.3h0l-5.4,14.3h-1.9l-5.4-14.3h0v14.3h-2.2v-17.1H553.9z"
   id="path226" />&#10;		<path
   d="M580,294.1c-0.9,0.7-2.1,1.1-3.5,1.1c-1,0-1.9-0.2-2.6-0.5c-0.7-0.3-1.3-0.8-1.8-1.3c-0.5-0.6-0.9-1.3-1.1-2.1    s-0.4-1.7-0.4-2.6c0-0.9,0.1-1.8,0.4-2.6s0.7-1.5,1.2-2c0.5-0.6,1.1-1,1.8-1.3s1.5-0.5,2.3-0.5c1.1,0,2,0.2,2.7,0.7    c0.7,0.5,1.3,1,1.8,1.7c0.4,0.7,0.7,1.5,0.9,2.3s0.2,1.6,0.2,2.4h-9.3c0,0.5,0,1.1,0.2,1.5c0.1,0.5,0.4,0.9,0.7,1.3    s0.7,0.7,1.2,0.9c0.5,0.2,1.1,0.3,1.8,0.3c0.9,0,1.6-0.2,2.1-0.6c0.6-0.4,0.9-1,1.1-1.8h2C581.6,292.3,581,293.4,580,294.1z     M579.5,286.1c-0.2-0.4-0.4-0.8-0.7-1.1c-0.3-0.3-0.7-0.6-1.1-0.7c-0.4-0.2-0.9-0.3-1.4-0.3c-0.5,0-1,0.1-1.4,0.3    c-0.4,0.2-0.8,0.4-1.1,0.8c-0.3,0.3-0.5,0.7-0.7,1.1s-0.3,0.9-0.3,1.4h7.1C579.8,287,579.7,286.6,579.5,286.1z"
   id="path227" />&#10;		<path
   d="M585.7,292.1c0.2,0.3,0.4,0.6,0.8,0.7c0.3,0.2,0.7,0.3,1.1,0.4c0.4,0.1,0.8,0.1,1.2,0.1c0.3,0,0.7,0,1-0.1    c0.4,0,0.7-0.1,1-0.3c0.3-0.1,0.5-0.3,0.7-0.6c0.2-0.2,0.3-0.6,0.3-0.9c0-0.5-0.2-0.9-0.6-1.2c-0.4-0.3-0.9-0.5-1.5-0.7    c-0.6-0.2-1.3-0.3-2-0.5s-1.4-0.3-2-0.6c-0.6-0.2-1.1-0.6-1.5-1c-0.4-0.4-0.6-1.1-0.6-1.9c0-0.6,0.1-1.2,0.4-1.6    c0.3-0.4,0.6-0.8,1.1-1.1c0.4-0.3,0.9-0.5,1.5-0.6c0.6-0.1,1.1-0.2,1.6-0.2c0.7,0,1.4,0.1,1.9,0.2c0.6,0.1,1.1,0.3,1.6,0.6    s0.8,0.7,1.1,1.2s0.4,1.1,0.5,1.9h-2c0-0.4-0.1-0.7-0.3-1c-0.2-0.3-0.4-0.5-0.7-0.6c-0.3-0.2-0.6-0.3-0.9-0.3    c-0.3-0.1-0.7-0.1-1-0.1c-0.3,0-0.6,0-0.9,0.1c-0.3,0-0.6,0.1-0.9,0.3s-0.5,0.3-0.6,0.5s-0.2,0.5-0.2,0.8c0,0.4,0.1,0.6,0.4,0.9    c0.2,0.2,0.6,0.4,0.9,0.6c0.4,0.2,0.8,0.3,1.3,0.4c0.5,0.1,1,0.2,1.4,0.3c0.5,0.1,1,0.2,1.5,0.4c0.5,0.2,0.9,0.4,1.3,0.6    c0.4,0.3,0.7,0.6,0.9,1c0.2,0.4,0.3,0.9,0.3,1.5c0,0.8-0.2,1.4-0.5,1.9c-0.3,0.5-0.7,0.9-1.2,1.2s-1.1,0.5-1.7,0.6    c-0.6,0.1-1.3,0.2-1.9,0.2c-0.7,0-1.3-0.1-2-0.2c-0.6-0.1-1.2-0.4-1.7-0.7c-0.5-0.3-0.9-0.8-1.2-1.3s-0.4-1.2-0.5-2h2    C585.4,291.4,585.5,291.8,585.7,292.1z"
   id="path228" />&#10;		<path
   d="M597.7,292.1c0.2,0.3,0.4,0.6,0.8,0.7c0.3,0.2,0.7,0.3,1.1,0.4c0.4,0.1,0.8,0.1,1.2,0.1c0.3,0,0.7,0,1-0.1    c0.4,0,0.7-0.1,1-0.3c0.3-0.1,0.5-0.3,0.7-0.6c0.2-0.2,0.3-0.6,0.3-0.9c0-0.5-0.2-0.9-0.6-1.2c-0.4-0.3-0.9-0.5-1.5-0.7    c-0.6-0.2-1.3-0.3-2-0.5s-1.4-0.3-2-0.6c-0.6-0.2-1.1-0.6-1.5-1c-0.4-0.4-0.6-1.1-0.6-1.9c0-0.6,0.1-1.2,0.4-1.6    c0.3-0.4,0.6-0.8,1.1-1.1c0.4-0.3,0.9-0.5,1.5-0.6c0.6-0.1,1.1-0.2,1.6-0.2c0.7,0,1.4,0.1,1.9,0.2c0.6,0.1,1.1,0.3,1.6,0.6    s0.8,0.7,1.1,1.2s0.4,1.1,0.5,1.9h-2c0-0.4-0.1-0.7-0.3-1c-0.2-0.3-0.4-0.5-0.7-0.6c-0.3-0.2-0.6-0.3-0.9-0.3    c-0.3-0.1-0.7-0.1-1-0.1c-0.3,0-0.6,0-0.9,0.1c-0.3,0-0.6,0.1-0.9,0.3s-0.5,0.3-0.6,0.5s-0.2,0.5-0.2,0.8c0,0.4,0.1,0.6,0.4,0.9    c0.2,0.2,0.6,0.4,0.9,0.6c0.4,0.2,0.8,0.3,1.3,0.4c0.5,0.1,1,0.2,1.4,0.3c0.5,0.1,1,0.2,1.5,0.4c0.5,0.2,0.9,0.4,1.3,0.6    c0.4,0.3,0.7,0.6,0.9,1c0.2,0.4,0.3,0.9,0.3,1.5c0,0.8-0.2,1.4-0.5,1.9c-0.3,0.5-0.7,0.9-1.2,1.2s-1.1,0.5-1.7,0.6    c-0.6,0.1-1.3,0.2-1.9,0.2c-0.7,0-1.3-0.1-2-0.2c-0.6-0.1-1.2-0.4-1.7-0.7c-0.5-0.3-0.9-0.8-1.2-1.3s-0.4-1.2-0.5-2h2    C597.4,291.4,597.5,291.8,597.7,292.1z"
   id="path229" />&#10;		<path
   d="M617.5,298.4c-0.9,1-2.4,1.5-4.4,1.5c-0.6,0-1.2-0.1-1.8-0.2c-0.6-0.1-1.1-0.3-1.6-0.6s-0.9-0.7-1.2-1.1    c-0.3-0.5-0.5-1-0.5-1.7h2c0,0.4,0.1,0.7,0.3,0.9s0.5,0.5,0.8,0.6c0.3,0.2,0.7,0.3,1,0.3c0.4,0.1,0.7,0.1,1.1,0.1    c0.7,0,1.2-0.1,1.7-0.3c0.5-0.2,0.8-0.6,1.2-1s0.5-0.9,0.7-1.5c0.1-0.6,0.2-1.2,0.2-1.9v-0.8h0c-0.4,0.8-0.9,1.3-1.6,1.7    s-1.5,0.5-2.3,0.5c-0.9,0-1.7-0.2-2.4-0.5c-0.7-0.3-1.3-0.8-1.7-1.4c-0.5-0.6-0.8-1.2-1-2c-0.2-0.8-0.3-1.6-0.3-2.4    c0-0.7,0.1-1.5,0.3-2.3c0.2-0.8,0.5-1.5,1-2.1c0.4-0.6,1-1.2,1.8-1.6c0.7-0.4,1.6-0.6,2.7-0.6c0.8,0,1.5,0.2,2.2,0.5    s1.2,0.9,1.5,1.5h0v-1.8h1.9v11.4C618.8,295.9,618.4,297.4,617.5,298.4z M614.9,292.8c0.5-0.3,0.9-0.6,1.1-1.1    c0.3-0.5,0.5-1,0.6-1.5c0.1-0.6,0.2-1.2,0.2-1.7c0-0.5-0.1-1.1-0.2-1.6c-0.1-0.5-0.3-1-0.6-1.4s-0.6-0.8-1.1-1s-1-0.4-1.6-0.4    c-0.7,0-1.2,0.1-1.7,0.4c-0.5,0.2-0.8,0.6-1.1,1c-0.3,0.4-0.5,0.9-0.6,1.4c-0.1,0.5-0.2,1.1-0.2,1.7c0,0.6,0.1,1.1,0.2,1.7    c0.1,0.6,0.3,1.1,0.6,1.5c0.3,0.5,0.6,0.8,1.1,1.1c0.4,0.3,1,0.4,1.7,0.4S614.4,293.1,614.9,292.8z"
   id="path230" />&#10;		<path
   d="M630.7,294.1c-0.9,0.7-2.1,1.1-3.5,1.1c-1,0-1.9-0.2-2.6-0.5c-0.7-0.3-1.3-0.8-1.8-1.3c-0.5-0.6-0.9-1.3-1.1-2.1    c-0.2-0.8-0.4-1.7-0.4-2.6c0-0.9,0.1-1.8,0.4-2.6s0.7-1.5,1.2-2c0.5-0.6,1.1-1,1.8-1.3s1.5-0.5,2.3-0.5c1.1,0,2,0.2,2.7,0.7    c0.7,0.5,1.3,1,1.8,1.7c0.4,0.7,0.7,1.5,0.9,2.3s0.2,1.6,0.2,2.4h-9.3c0,0.5,0,1.1,0.2,1.5c0.1,0.5,0.4,0.9,0.7,1.3    c0.3,0.4,0.7,0.7,1.2,0.9c0.5,0.2,1.1,0.3,1.8,0.3c0.9,0,1.6-0.2,2.1-0.6c0.6-0.4,0.9-1,1.1-1.8h2    C632.2,292.3,631.6,293.4,630.7,294.1z M630.2,286.1c-0.2-0.4-0.4-0.8-0.7-1.1c-0.3-0.3-0.7-0.6-1.1-0.7c-0.4-0.2-0.9-0.3-1.4-0.3    c-0.5,0-1,0.1-1.4,0.3c-0.4,0.2-0.8,0.4-1.1,0.8c-0.3,0.3-0.5,0.7-0.7,1.1c-0.2,0.4-0.3,0.9-0.3,1.4h7.1    C630.5,287,630.4,286.6,630.2,286.1z"
   id="path231" />&#10;		<path
   d="M636.7,282.5v2.6h0c0.5-1,1.1-1.8,1.8-2.2c0.7-0.5,1.6-0.7,2.7-0.7v2.2c-0.8,0-1.5,0.1-2.1,0.3c-0.6,0.2-1,0.6-1.4,1    c-0.4,0.4-0.6,1-0.8,1.6c-0.2,0.6-0.2,1.3-0.2,2.1v5.5h-2v-12.4H636.7z"
   id="path232" />&#10;		<path
   d="M652.3,295.2c-0.5,0-0.9-0.1-1.3-0.4c-0.3-0.3-0.5-0.8-0.5-1.5c-0.6,0.7-1.2,1.2-2,1.5c-0.7,0.3-1.5,0.4-2.4,0.4    c-0.6,0-1.1-0.1-1.6-0.2s-0.9-0.3-1.3-0.6c-0.4-0.3-0.7-0.6-0.9-1.1s-0.3-1-0.3-1.6c0-0.7,0.1-1.3,0.4-1.7    c0.2-0.4,0.6-0.8,0.9-1.1c0.4-0.3,0.8-0.5,1.3-0.6c0.5-0.1,1-0.3,1.5-0.4c0.6-0.1,1.1-0.2,1.6-0.3s0.9-0.1,1.3-0.2    c0.4-0.1,0.7-0.3,0.9-0.5c0.2-0.2,0.3-0.5,0.3-0.9c0-0.4-0.1-0.8-0.3-1.1c-0.2-0.3-0.4-0.5-0.6-0.6c-0.3-0.1-0.6-0.2-0.9-0.3    s-0.7-0.1-1-0.1c-0.9,0-1.6,0.2-2.2,0.5c-0.6,0.3-0.9,0.9-0.9,1.9h-2c0-0.8,0.2-1.4,0.5-1.9c0.3-0.5,0.7-1,1.2-1.3    c0.5-0.3,1-0.6,1.7-0.7c0.6-0.1,1.3-0.2,2-0.2c0.6,0,1.1,0,1.7,0.1c0.6,0.1,1.1,0.2,1.5,0.5c0.4,0.2,0.8,0.6,1.1,1    c0.3,0.4,0.4,1,0.4,1.8v6.4c0,0.5,0,0.8,0.1,1.1c0.1,0.2,0.2,0.3,0.6,0.3c0.2,0,0.4,0,0.6-0.1v1.6    C653.4,295.1,653,295.2,652.3,295.2z M649.5,288.9c-0.4,0.1-0.9,0.2-1.3,0.2c-0.5,0.1-0.9,0.1-1.4,0.2c-0.5,0.1-0.9,0.2-1.2,0.3    c-0.4,0.2-0.7,0.4-0.9,0.7c-0.2,0.3-0.3,0.7-0.3,1.2c0,0.3,0.1,0.6,0.2,0.9c0.1,0.2,0.3,0.4,0.5,0.6c0.2,0.1,0.5,0.2,0.8,0.3    c0.3,0.1,0.6,0.1,0.9,0.1c0.7,0,1.2-0.1,1.7-0.3c0.5-0.2,0.9-0.4,1.2-0.7c0.3-0.3,0.5-0.6,0.7-0.9c0.1-0.3,0.2-0.6,0.2-0.9v-2.1    C650.2,288.7,649.9,288.8,649.5,288.9z M646.5,278.2v2.5h-2.2v-2.5H646.5z M651.1,278.2v2.5h-2.2v-2.5H651.1z"
   id="path233" />&#10;		<path
   d="M661,282.5v1.8h-2.5v7.7c0,0.2,0,0.4,0.1,0.6c0,0.1,0.1,0.3,0.2,0.3c0.1,0.1,0.3,0.1,0.5,0.2s0.5,0,0.8,0h0.9v1.8h-1.6    c-0.5,0-1,0-1.4-0.1c-0.4-0.1-0.7-0.2-0.9-0.4c-0.2-0.2-0.4-0.5-0.5-0.8c-0.1-0.4-0.2-0.8-0.2-1.4v-7.9h-2.1v-1.8h2.1v-3.7h2v3.7    H661z"
   id="path234" />&#10;	</g>&#10;</g>&#10;<g
   id="Stativklemme">&#10;	<path
   d="M449.9,374.3h24.5c0.8,0,1.4,0.6,1.4,1.4v33.6c0,0.8-0.6,1.4-1.4,1.4h-24.5c-0.8,0-1.4-0.6-1.4-1.4v-33.6   C448.5,375,449.1,374.3,449.9,374.3z"
   id="path235" />&#10;	<path
   class="st6"
   d="M434,379.9h-2.9c0-1.2-1.3-2.1-2.9-2.1s-2.9,0.9-2.9,2.1h-10.7l-1.9-2h-9.6l-1,1l-36.7,5.6   c-1.3,0-2.3-1-2.3-2.3V373c0-0.6-0.5-1.1-1.1-1.1h-23.1c-0.7,0-1.2,0.5-1.2,1.1v7c0,0.6-0.5,1.1-1.1,1.1h-20.8   c-0.6,0-1.1,0.5-1.1,1.1v7c0,0.6,0.5,1.1,1.1,1.1c0,0,7.6,0,13.6,0c4,0,7.3,0,7.3,0c0.6,0,1.1,0.5,1.1,1.1v9.2   c0,0.7-0.5,1.2-1.1,1.2h-20.8c-0.6,0-1.1,0.5-1.1,1.1v7c0,0.6,0.5,1.1,1.1,1.1H362c0.6,0,1.1-0.5,1.1-1.1v-9.3c0-1.3,1-2.3,2.3-2.3   l36.7,5.6l1,1h9.6l1.9-2h10.6c0,1.2,1.3,2.1,2.9,2.1s2.9-0.9,2.9-2.1h2.9c1.1,0,1.9-0.9,1.9-1.9v-19.1   C435.9,380.7,435,379.9,434,379.9z"
   id="path236" />&#10;	<circle
   class="st11"
   cx="407.9"
   cy="391.3"
   r="4.8"
   id="circle236" />&#10;	<path
   class="st11"
   d="M400.7,386.5h14.4c2.7,0,4.8,2.1,4.8,4.8c0,2.7-2.1,4.8-4.8,4.8h-14.4c-2.7,0-4.8-2.1-4.8-4.8   C395.9,388.7,398.1,386.5,400.7,386.5z"
   id="path237" />&#10;	<path
   class="st6"
   d="M390.5,370.6l3.1-2.3l31.7,43.7l-3.1,2.2L390.5,370.6"
   id="path238" />&#10;	<path
   class="st0"
   d="M435.9,385.5v11.6h215.8c3.2,0,5.8-2.6,5.8-5.8c0-3.2-2.6-5.8-5.8-5.8C651.7,385.5,435.9,385.5,435.9,385.5"
   id="path239" />&#10;</g>&#10;<line
   class="st12"
   x1="561"
   y1="600"
   x2="347.5"
   y2="600"
   id="line239" />&#10;<polygon
   points="337,600 351.9,593.9 348.3,600 351.9,606.1 "
   id="polygon239" />&#10;&#10;<line
   class="st12"
   x1="571.2"
   y1="711.3"
   x2="413.7"
   y2="711.3"
   id="line248" />&#10;<polygon
   points="403.1,711.3 418,705.2 414.5,711.3 418,717.3 "
   id="polygon248" />&#10;<g
   id="g260">&#10;	<path
   d="M581.2,700.6l5.4,14.4l5.4-14.4h3.1v17.1H593v-14.3h0l-5.4,14.3h-1.9l-5.4-14.3h0v14.3h-2.2v-17.1H581.2z"
   id="path249" />&#10;	<path
   d="M609.6,717.7c-0.4,0.2-0.8,0.3-1.5,0.3c-0.5,0-0.9-0.1-1.3-0.4c-0.3-0.3-0.5-0.8-0.5-1.5c-0.6,0.7-1.2,1.2-2,1.5   s-1.5,0.4-2.4,0.4c-0.6,0-1.1-0.1-1.6-0.2s-0.9-0.3-1.3-0.6c-0.4-0.3-0.7-0.6-0.9-1.1s-0.3-1-0.3-1.6c0-0.7,0.1-1.3,0.4-1.7   s0.6-0.8,0.9-1.1c0.4-0.3,0.8-0.5,1.3-0.6c0.5-0.1,1-0.3,1.5-0.4c0.6-0.1,1.1-0.2,1.6-0.3c0.5-0.1,0.9-0.1,1.3-0.2   c0.4-0.1,0.7-0.3,0.9-0.5c0.2-0.2,0.3-0.5,0.3-0.9c0-0.4-0.1-0.8-0.3-1.1c-0.2-0.3-0.4-0.5-0.6-0.6c-0.3-0.1-0.6-0.2-0.9-0.3   c-0.3,0-0.7-0.1-1-0.1c-0.9,0-1.6,0.2-2.2,0.5c-0.6,0.3-0.9,0.9-0.9,1.9h-2c0-0.8,0.2-1.4,0.5-1.9c0.3-0.5,0.7-1,1.2-1.3   c0.5-0.3,1-0.6,1.6-0.7c0.6-0.1,1.3-0.2,2-0.2c0.6,0,1.1,0,1.7,0.1s1.1,0.2,1.5,0.5c0.4,0.2,0.8,0.6,1.1,1c0.3,0.4,0.4,1,0.4,1.7   v6.4c0,0.5,0,0.8,0.1,1.1c0.1,0.2,0.2,0.3,0.6,0.3c0.2,0,0.4,0,0.6-0.1V717.7z M606.3,711.3c-0.3,0.2-0.6,0.3-1,0.4   s-0.9,0.2-1.3,0.2s-0.9,0.1-1.4,0.2c-0.5,0.1-0.9,0.2-1.2,0.3s-0.7,0.4-0.9,0.7c-0.2,0.3-0.3,0.7-0.3,1.2c0,0.3,0.1,0.6,0.2,0.9   s0.3,0.4,0.5,0.6c0.2,0.1,0.5,0.2,0.8,0.3s0.6,0.1,0.9,0.1c0.7,0,1.2-0.1,1.7-0.3c0.5-0.2,0.9-0.4,1.2-0.7c0.3-0.3,0.5-0.6,0.7-0.9   c0.1-0.3,0.2-0.6,0.2-0.9V711.3z"
   id="path250" />&#10;	<path
   d="M620.8,721.3c-0.9,1-2.4,1.5-4.4,1.5c-0.6,0-1.2-0.1-1.8-0.2c-0.6-0.1-1.1-0.3-1.6-0.6c-0.5-0.3-0.9-0.7-1.2-1.1   c-0.3-0.5-0.5-1-0.5-1.7h2c0,0.4,0.1,0.7,0.3,0.9c0.2,0.3,0.5,0.5,0.8,0.6c0.3,0.2,0.7,0.3,1,0.3c0.4,0.1,0.7,0.1,1.1,0.1   c0.7,0,1.2-0.1,1.7-0.3c0.5-0.2,0.8-0.6,1.2-1c0.3-0.4,0.5-0.9,0.7-1.5c0.1-0.6,0.2-1.2,0.2-1.9v-0.8h0c-0.4,0.8-0.9,1.3-1.6,1.7   s-1.5,0.5-2.3,0.5c-0.9,0-1.7-0.2-2.4-0.5c-0.7-0.3-1.3-0.8-1.7-1.4c-0.5-0.6-0.8-1.2-1-2c-0.2-0.8-0.3-1.6-0.3-2.4   c0-0.7,0.1-1.5,0.3-2.3c0.2-0.8,0.5-1.5,1-2.1c0.4-0.6,1-1.2,1.8-1.6c0.7-0.4,1.6-0.6,2.7-0.6c0.8,0,1.5,0.2,2.2,0.5   s1.2,0.9,1.5,1.5h0v-1.8h1.9v11.4C622.2,718.7,621.7,720.3,620.8,721.3z M618.2,715.7c0.5-0.3,0.9-0.6,1.1-1.1s0.5-1,0.6-1.5   c0.1-0.6,0.2-1.2,0.2-1.7c0-0.5-0.1-1.1-0.2-1.6c-0.1-0.5-0.3-1-0.6-1.4c-0.3-0.4-0.6-0.8-1.1-1c-0.4-0.3-1-0.4-1.6-0.4   c-0.7,0-1.2,0.1-1.7,0.4c-0.5,0.2-0.8,0.6-1.1,1c-0.3,0.4-0.5,0.9-0.6,1.4s-0.2,1.1-0.2,1.7c0,0.6,0.1,1.1,0.2,1.7   c0.1,0.6,0.3,1.1,0.6,1.5s0.6,0.8,1.1,1.1c0.4,0.3,1,0.4,1.7,0.4C617.2,716.1,617.7,716,618.2,715.7z"
   id="path251" />&#10;	<path
   d="M627.2,705.4v2h0c0.8-1.5,2.2-2.3,4-2.3c0.8,0,1.5,0.1,2,0.3c0.5,0.2,1,0.5,1.3,0.9s0.6,0.9,0.7,1.4   c0.1,0.6,0.2,1.2,0.2,1.8v8.2h-2v-8.4c0-0.8-0.2-1.4-0.7-1.8c-0.4-0.4-1.1-0.7-1.8-0.7c-0.6,0-1.2,0.1-1.6,0.3   c-0.5,0.2-0.8,0.5-1.1,0.8c-0.3,0.4-0.5,0.8-0.7,1.2c-0.2,0.5-0.2,1-0.2,1.5v7h-2v-12.4H627.2z"
   id="path252" />&#10;	<path
   d="M647.4,717c-0.9,0.7-2.1,1.1-3.5,1.1c-1,0-1.9-0.2-2.6-0.5c-0.7-0.3-1.3-0.8-1.8-1.3c-0.5-0.6-0.9-1.3-1.1-2.1   s-0.4-1.7-0.4-2.6c0-0.9,0.1-1.8,0.4-2.6s0.7-1.5,1.2-2c0.5-0.6,1.1-1,1.8-1.3s1.5-0.5,2.3-0.5c1.1,0,2,0.2,2.7,0.7   c0.7,0.5,1.3,1,1.8,1.7c0.4,0.7,0.7,1.5,0.9,2.3s0.2,1.6,0.2,2.4h-9.3c0,0.5,0,1.1,0.2,1.5c0.1,0.5,0.4,0.9,0.7,1.3   s0.7,0.7,1.2,0.9c0.5,0.2,1.1,0.3,1.8,0.3c0.9,0,1.6-0.2,2.1-0.6c0.6-0.4,0.9-1,1.1-1.8h2C648.9,715.2,648.3,716.3,647.4,717z    M646.9,709c-0.2-0.4-0.4-0.8-0.7-1.1c-0.3-0.3-0.7-0.6-1.1-0.7c-0.4-0.2-0.9-0.3-1.4-0.3c-0.5,0-1,0.1-1.4,0.3   c-0.4,0.2-0.8,0.4-1.1,0.8c-0.3,0.3-0.5,0.7-0.7,1.1s-0.3,0.9-0.3,1.4h7.1C647.2,709.9,647.1,709.4,646.9,709z"
   id="path253" />&#10;	<path
   d="M656.8,705.4v1.8h-2.5v7.7c0,0.2,0,0.4,0.1,0.6c0,0.1,0.1,0.3,0.2,0.3c0.1,0.1,0.3,0.1,0.5,0.2s0.5,0,0.8,0h0.9v1.8h-1.6   c-0.5,0-1,0-1.4-0.1c-0.4-0.1-0.7-0.2-0.9-0.4c-0.2-0.2-0.4-0.5-0.5-0.8c-0.1-0.4-0.2-0.8-0.2-1.4v-7.9h-2.1v-1.8h2.1v-3.7h2v3.7   H656.8z"
   id="path254" />&#10;	<path
   d="M660.9,705.4v2.6h0c0.5-1,1.1-1.8,1.8-2.2c0.7-0.5,1.6-0.7,2.7-0.7v2.2c-0.8,0-1.5,0.1-2.1,0.3c-0.6,0.2-1,0.6-1.4,1   c-0.4,0.4-0.6,1-0.8,1.6c-0.2,0.6-0.2,1.3-0.2,2.1v5.5h-2v-12.4H660.9z"
   id="path255" />&#10;	<path
   d="M675.4,717.8v-2h0c-0.4,0.8-1,1.3-1.7,1.7c-0.7,0.4-1.5,0.5-2.4,0.5c-0.8,0-1.5-0.1-2-0.3c-0.5-0.2-1-0.5-1.3-0.9   c-0.3-0.4-0.6-0.9-0.7-1.4s-0.2-1.2-0.2-1.8v-8.2h2v8.4c0,0.8,0.2,1.4,0.7,1.8c0.4,0.4,1.1,0.7,1.8,0.7c0.6,0,1.2-0.1,1.6-0.3   c0.5-0.2,0.8-0.5,1.1-0.8c0.3-0.4,0.5-0.8,0.7-1.2c0.2-0.5,0.2-1,0.2-1.5v-7h2v12.4H675.4z M671,701.1v2.5h-2.2v-2.5H671z    M675.5,701.1v2.5h-2.2v-2.5H675.5z"
   id="path256" />&#10;	<path
   d="M682.4,700.6v6.6h0c0.2-0.4,0.4-0.7,0.7-1c0.3-0.3,0.6-0.5,1-0.6c0.4-0.2,0.7-0.3,1.1-0.4c0.4-0.1,0.8-0.1,1.1-0.1   c0.8,0,1.5,0.1,2,0.3c0.5,0.2,1,0.5,1.3,0.9s0.6,0.9,0.7,1.4c0.1,0.6,0.2,1.2,0.2,1.8v8.2h-2v-8.4c0-0.8-0.2-1.4-0.7-1.8   c-0.4-0.4-1.1-0.7-1.8-0.7c-0.6,0-1.2,0.1-1.6,0.3c-0.5,0.2-0.8,0.5-1.1,0.8c-0.3,0.4-0.5,0.8-0.7,1.2c-0.2,0.5-0.2,1-0.2,1.5v7h-2   v-17.1H682.4z"
   id="path257" />&#10;	<path
   d="M695.6,705.4v2.6h0c0.5-1,1.1-1.8,1.8-2.2c0.7-0.5,1.6-0.7,2.7-0.7v2.2c-0.8,0-1.5,0.1-2.1,0.3c-0.6,0.2-1,0.6-1.4,1   c-0.4,0.4-0.6,1-0.8,1.6c-0.2,0.6-0.2,1.3-0.2,2.1v5.5h-2v-12.4H695.6z"
   id="path258" />&#10;	<path
   d="M710.1,717c-0.9,0.7-2.1,1.1-3.5,1.1c-1,0-1.9-0.2-2.6-0.5c-0.7-0.3-1.3-0.8-1.8-1.3c-0.5-0.6-0.9-1.3-1.1-2.1   s-0.4-1.7-0.4-2.6c0-0.9,0.1-1.8,0.4-2.6s0.7-1.5,1.2-2c0.5-0.6,1.1-1,1.8-1.3s1.5-0.5,2.3-0.5c1.1,0,2,0.2,2.7,0.7   c0.7,0.5,1.3,1,1.8,1.7c0.4,0.7,0.7,1.5,0.9,2.3s0.2,1.6,0.2,2.4h-9.3c0,0.5,0,1.1,0.2,1.5c0.1,0.5,0.4,0.9,0.7,1.3   s0.7,0.7,1.2,0.9c0.5,0.2,1.1,0.3,1.8,0.3c0.9,0,1.6-0.2,2.1-0.6c0.6-0.4,0.9-1,1.1-1.8h2C711.6,715.2,711,716.3,710.1,717z    M709.6,709c-0.2-0.4-0.4-0.8-0.7-1.1c-0.3-0.3-0.7-0.6-1.1-0.7c-0.4-0.2-0.9-0.3-1.4-0.3c-0.5,0-1,0.1-1.4,0.3   c-0.4,0.2-0.8,0.4-1.1,0.8c-0.3,0.3-0.5,0.7-0.7,1.1s-0.3,0.9-0.3,1.4h7.1C709.9,709.9,709.8,709.4,709.6,709z"
   id="path259" />&#10;	<path
   d="M716,705.4v2.6h0c0.5-1,1.1-1.8,1.8-2.2c0.7-0.5,1.6-0.7,2.7-0.7v2.2c-0.8,0-1.5,0.1-2.1,0.3c-0.6,0.2-1,0.6-1.4,1   c-0.4,0.4-0.6,1-0.8,1.6c-0.2,0.6-0.2,1.3-0.2,2.1v5.5h-2v-12.4H716z"
   id="path260" />&#10;</g>&#10;<line
   class="st12"
   x1="164.6"
   y1="592.7"
   x2="259.1"
   y2="592.8"
   id="line260" />&#10;<polygon
   points="269.7,592.8 254.7,598.8 258.3,592.8 254.7,586.7 "
   id="polygon260" />&#10;<g
   id="g270">&#10;	<path
   d="M47.2,582.1c0.4,0,0.8,0,1.2,0s0.8,0,1.3,0.1s0.8,0.1,1.2,0.2s0.7,0.2,0.9,0.4c0.6,0.3,1,0.8,1.4,1.4   c0.4,0.6,0.6,1.3,0.6,2.2c0,0.9-0.2,1.7-0.7,2.4c-0.4,0.7-1.1,1.2-1.9,1.5v0c1.1,0.2,1.9,0.7,2.4,1.4c0.6,0.7,0.8,1.6,0.8,2.7   c0,0.6-0.1,1.2-0.3,1.8c-0.2,0.6-0.6,1.1-1,1.6c-0.4,0.5-1,0.8-1.6,1.1c-0.6,0.3-1.4,0.4-2.2,0.4H41v-17.1H47.2z M47.9,589.5   c1.3,0,2.2-0.2,2.8-0.7c0.6-0.5,0.9-1.1,0.9-2.1c0-0.6-0.1-1.1-0.3-1.4c-0.2-0.4-0.5-0.6-0.8-0.8c-0.3-0.2-0.7-0.3-1.2-0.4   c-0.4-0.1-0.9-0.1-1.4-0.1h-4.6v5.4H47.9z M49,597.3c1,0,1.8-0.3,2.4-0.8c0.6-0.5,0.9-1.3,0.9-2.3c0-0.6-0.1-1-0.3-1.4   c-0.2-0.4-0.5-0.7-0.8-0.9c-0.3-0.2-0.7-0.4-1.2-0.5s-0.9-0.1-1.4-0.1h-5.2v5.9H49z"
   id="path261" />&#10;	<path
   d="M65.9,598.5c-0.9,0.7-2.1,1.1-3.5,1.1c-1,0-1.9-0.2-2.6-0.5c-0.7-0.3-1.3-0.8-1.8-1.3c-0.5-0.6-0.9-1.3-1.1-2.1   c-0.2-0.8-0.4-1.7-0.4-2.6c0-0.9,0.1-1.8,0.4-2.6s0.7-1.5,1.2-2c0.5-0.6,1.1-1,1.8-1.3s1.5-0.5,2.3-0.5c1.1,0,2,0.2,2.7,0.7   c0.7,0.5,1.3,1,1.8,1.7c0.4,0.7,0.7,1.5,0.9,2.3s0.2,1.6,0.2,2.4h-9.3c0,0.5,0,1.1,0.2,1.5c0.1,0.5,0.4,0.9,0.7,1.3   c0.3,0.4,0.7,0.7,1.2,0.9c0.5,0.2,1.1,0.3,1.8,0.3c0.9,0,1.6-0.2,2.1-0.6c0.6-0.4,0.9-1,1.1-1.8h2   C67.4,596.7,66.8,597.8,65.9,598.5z M65.4,590.5c-0.2-0.4-0.4-0.8-0.7-1.1c-0.3-0.3-0.7-0.6-1.1-0.7c-0.4-0.2-0.9-0.3-1.4-0.3   c-0.5,0-1,0.1-1.4,0.3c-0.4,0.2-0.8,0.4-1.1,0.8c-0.3,0.3-0.5,0.7-0.7,1.1c-0.2,0.4-0.3,0.9-0.3,1.4h7.1   C65.7,591.4,65.6,590.9,65.4,590.5z"
   id="path262" />&#10;	<path
   d="M77.4,589c-0.5-0.4-1.2-0.6-2.1-0.6c-0.7,0-1.4,0.1-1.8,0.4c-0.5,0.3-0.9,0.6-1.2,1.1c-0.3,0.4-0.5,1-0.6,1.5   c-0.1,0.6-0.2,1.2-0.2,1.8c0,0.6,0.1,1.1,0.2,1.7s0.3,1,0.6,1.5c0.3,0.4,0.7,0.8,1.1,1c0.5,0.3,1,0.4,1.7,0.4c1,0,1.8-0.3,2.4-0.8   c0.6-0.5,0.9-1.3,1-2.2h2.1c-0.2,1.5-0.8,2.7-1.7,3.6c-0.9,0.8-2.2,1.2-3.8,1.2c-0.9,0-1.8-0.2-2.5-0.5c-0.7-0.3-1.3-0.7-1.8-1.3   c-0.5-0.6-0.9-1.2-1.1-2c-0.2-0.8-0.4-1.6-0.4-2.6s0.1-1.8,0.4-2.6c0.2-0.8,0.6-1.5,1.1-2.1c0.5-0.6,1.1-1.1,1.8-1.4   c0.7-0.3,1.6-0.5,2.6-0.5c0.7,0,1.4,0.1,2,0.3c0.6,0.2,1.2,0.4,1.6,0.8c0.5,0.4,0.9,0.8,1.2,1.3c0.3,0.5,0.5,1.2,0.6,1.9h-2.1   C78.3,590,77.9,589.4,77.4,589z"
   id="path263" />&#10;	<path
   d="M84.9,582.1v6.6h0c0.2-0.4,0.4-0.7,0.7-1c0.3-0.3,0.6-0.5,1-0.6c0.4-0.2,0.7-0.3,1.1-0.4c0.4-0.1,0.8-0.1,1.1-0.1   c0.8,0,1.5,0.1,2,0.3c0.5,0.2,1,0.5,1.3,0.9s0.6,0.9,0.7,1.4s0.2,1.2,0.2,1.8v8.2h-2v-8.4c0-0.8-0.2-1.4-0.7-1.8s-1.1-0.7-1.8-0.7   c-0.6,0-1.2,0.1-1.6,0.3c-0.5,0.2-0.8,0.5-1.1,0.8c-0.3,0.4-0.5,0.8-0.7,1.2s-0.2,1-0.2,1.5v7h-2v-17.1H84.9z"
   id="path264" />&#10;	<path
   d="M105,598.5c-0.9,0.7-2.1,1.1-3.5,1.1c-1,0-1.9-0.2-2.6-0.5c-0.7-0.3-1.3-0.8-1.8-1.3c-0.5-0.6-0.9-1.3-1.1-2.1   s-0.4-1.7-0.4-2.6c0-0.9,0.1-1.8,0.4-2.6s0.7-1.5,1.2-2c0.5-0.6,1.1-1,1.8-1.3s1.5-0.5,2.3-0.5c1.1,0,2,0.2,2.7,0.7   c0.7,0.5,1.3,1,1.8,1.7c0.4,0.7,0.7,1.5,0.9,2.3s0.2,1.6,0.2,2.4h-9.3c0,0.5,0,1.1,0.2,1.5c0.1,0.5,0.4,0.9,0.7,1.3   s0.7,0.7,1.2,0.9c0.5,0.2,1.1,0.3,1.8,0.3c0.9,0,1.6-0.2,2.1-0.6c0.6-0.4,0.9-1,1.1-1.8h2C106.6,596.7,106,597.8,105,598.5z    M104.5,590.5c-0.2-0.4-0.4-0.8-0.7-1.1c-0.3-0.3-0.7-0.6-1.1-0.7c-0.4-0.2-0.9-0.3-1.4-0.3c-0.5,0-1,0.1-1.4,0.3   c-0.4,0.2-0.8,0.4-1.1,0.8c-0.3,0.3-0.5,0.7-0.7,1.1s-0.3,0.9-0.3,1.4h7.1C104.8,591.4,104.7,590.9,104.5,590.5z"
   id="path265" />&#10;	<path
   d="M111,586.8v2.6h0c0.5-1,1.1-1.8,1.8-2.2c0.7-0.5,1.6-0.7,2.7-0.7v2.2c-0.8,0-1.5,0.1-2.1,0.3c-0.6,0.2-1,0.6-1.4,1   c-0.4,0.4-0.6,1-0.8,1.6c-0.2,0.6-0.2,1.3-0.2,2.1v5.5h-2v-12.4H111z"
   id="path266" />&#10;	<path
   d="M125.8,602.8c-0.9,1-2.4,1.5-4.4,1.5c-0.6,0-1.2-0.1-1.8-0.2c-0.6-0.1-1.1-0.3-1.6-0.6s-0.9-0.7-1.2-1.1   c-0.3-0.5-0.5-1-0.5-1.7h2c0,0.4,0.1,0.7,0.3,0.9s0.5,0.5,0.8,0.6c0.3,0.2,0.7,0.3,1,0.3c0.4,0.1,0.7,0.1,1.1,0.1   c0.7,0,1.2-0.1,1.7-0.3c0.5-0.2,0.8-0.6,1.2-1s0.5-0.9,0.7-1.5c0.1-0.6,0.2-1.2,0.2-1.9v-0.8h0c-0.4,0.8-0.9,1.3-1.6,1.7   s-1.5,0.5-2.3,0.5c-0.9,0-1.7-0.2-2.4-0.5c-0.7-0.3-1.3-0.8-1.7-1.4c-0.5-0.6-0.8-1.2-1-2c-0.2-0.8-0.3-1.6-0.3-2.4   c0-0.7,0.1-1.5,0.3-2.3c0.2-0.8,0.5-1.5,1-2.1c0.4-0.6,1-1.2,1.8-1.6c0.7-0.4,1.6-0.6,2.7-0.6c0.8,0,1.5,0.2,2.2,0.5   s1.2,0.9,1.5,1.5h0v-1.8h1.9v11.4C127.2,600.2,126.7,601.8,125.8,602.8z M123.2,597.2c0.5-0.3,0.9-0.6,1.1-1.1   c0.3-0.5,0.5-1,0.6-1.5c0.1-0.6,0.2-1.2,0.2-1.7c0-0.5-0.1-1.1-0.2-1.6c-0.1-0.5-0.3-1-0.6-1.4s-0.6-0.8-1.1-1s-1-0.4-1.6-0.4   c-0.7,0-1.2,0.1-1.7,0.4c-0.5,0.2-0.8,0.6-1.1,1c-0.3,0.4-0.5,0.9-0.6,1.4c-0.1,0.5-0.2,1.1-0.2,1.7c0,0.6,0.1,1.1,0.2,1.7   c0.1,0.6,0.3,1.1,0.6,1.5c0.3,0.5,0.6,0.8,1.1,1.1c0.4,0.3,1,0.4,1.7,0.4S122.7,597.5,123.2,597.2z"
   id="path267" />&#10;	<path
   d="M132.4,582.1v17.1h-2v-17.1H132.4z"
   id="path268" />&#10;	<path
   d="M146.5,599.2c-0.4,0.2-0.8,0.3-1.5,0.3c-0.5,0-0.9-0.1-1.3-0.4c-0.3-0.3-0.5-0.8-0.5-1.5c-0.6,0.7-1.2,1.2-2,1.5   c-0.7,0.3-1.5,0.4-2.4,0.4c-0.6,0-1.1-0.1-1.6-0.2s-0.9-0.3-1.3-0.6c-0.4-0.3-0.7-0.6-0.9-1.1s-0.3-1-0.3-1.6   c0-0.7,0.1-1.3,0.4-1.7c0.2-0.4,0.6-0.8,0.9-1.1c0.4-0.3,0.8-0.5,1.3-0.6c0.5-0.1,1-0.3,1.5-0.4c0.6-0.1,1.1-0.2,1.6-0.3   s0.9-0.1,1.3-0.2c0.4-0.1,0.7-0.3,0.9-0.5c0.2-0.2,0.3-0.5,0.3-0.9c0-0.4-0.1-0.8-0.3-1.1c-0.2-0.3-0.4-0.5-0.6-0.6   c-0.3-0.1-0.6-0.2-0.9-0.3s-0.7-0.1-1-0.1c-0.9,0-1.6,0.2-2.2,0.5c-0.6,0.3-0.9,0.9-0.9,1.9h-2c0-0.8,0.2-1.4,0.5-1.9   c0.3-0.5,0.7-1,1.2-1.3c0.5-0.3,1-0.6,1.6-0.7c0.6-0.1,1.3-0.2,2-0.2c0.6,0,1.1,0,1.7,0.1c0.6,0.1,1.1,0.2,1.5,0.5   c0.4,0.2,0.8,0.6,1.1,1c0.3,0.4,0.4,1,0.4,1.7v6.4c0,0.5,0,0.8,0.1,1.1c0.1,0.2,0.2,0.3,0.6,0.3c0.2,0,0.4,0,0.6-0.1V599.2z    M143.2,592.8c-0.3,0.2-0.6,0.3-1,0.4s-0.9,0.2-1.3,0.2s-0.9,0.1-1.4,0.2c-0.5,0.1-0.9,0.2-1.2,0.3c-0.4,0.2-0.7,0.4-0.9,0.7   c-0.2,0.3-0.3,0.7-0.3,1.2c0,0.3,0.1,0.6,0.2,0.9c0.1,0.2,0.3,0.4,0.5,0.6c0.2,0.1,0.5,0.2,0.8,0.3c0.3,0.1,0.6,0.1,0.9,0.1   c0.7,0,1.2-0.1,1.7-0.3c0.5-0.2,0.9-0.4,1.2-0.7s0.5-0.6,0.7-0.9c0.1-0.3,0.2-0.6,0.2-0.9V592.8z"
   id="path269" />&#10;	<path
   d="M150,596.5c0.2,0.3,0.4,0.6,0.8,0.7c0.3,0.2,0.7,0.3,1.1,0.4c0.4,0.1,0.8,0.1,1.2,0.1c0.3,0,0.7,0,1-0.1   c0.4,0,0.7-0.1,1-0.3c0.3-0.1,0.5-0.3,0.7-0.6c0.2-0.2,0.3-0.6,0.3-0.9c0-0.5-0.2-0.9-0.6-1.2c-0.4-0.3-0.9-0.5-1.5-0.7   c-0.6-0.2-1.3-0.3-2-0.5s-1.4-0.3-2-0.6c-0.6-0.2-1.1-0.6-1.5-1c-0.4-0.4-0.6-1.1-0.6-1.9c0-0.6,0.1-1.2,0.4-1.6   c0.3-0.4,0.6-0.8,1.1-1.1c0.4-0.3,0.9-0.5,1.5-0.6c0.6-0.1,1.1-0.2,1.6-0.2c0.7,0,1.4,0.1,1.9,0.2c0.6,0.1,1.1,0.3,1.6,0.6   s0.8,0.7,1.1,1.2s0.4,1.1,0.5,1.9h-2c0-0.4-0.1-0.7-0.3-1c-0.2-0.3-0.4-0.5-0.7-0.6c-0.3-0.2-0.6-0.3-0.9-0.3   c-0.3-0.1-0.7-0.1-1-0.1c-0.3,0-0.6,0-0.9,0.1c-0.3,0-0.6,0.1-0.9,0.3s-0.5,0.3-0.6,0.5s-0.2,0.5-0.2,0.8c0,0.4,0.1,0.6,0.4,0.9   c0.2,0.2,0.6,0.4,0.9,0.6c0.4,0.2,0.8,0.3,1.3,0.4c0.5,0.1,1,0.2,1.4,0.3c0.5,0.1,1,0.2,1.5,0.4c0.5,0.2,0.9,0.4,1.3,0.6   c0.4,0.3,0.7,0.6,0.9,1c0.2,0.4,0.3,0.9,0.3,1.5c0,0.8-0.2,1.4-0.5,1.9c-0.3,0.5-0.7,0.9-1.2,1.2s-1.1,0.5-1.7,0.6   c-0.6,0.1-1.3,0.2-1.9,0.2c-0.7,0-1.3-0.1-2-0.2c-0.6-0.1-1.2-0.4-1.7-0.7c-0.5-0.3-0.9-0.8-1.2-1.3s-0.4-1.2-0.5-2h2   C149.7,595.8,149.8,596.2,150,596.5z"
   id="path270" />&#10;</g>&#10;<line
   class="st12"
   x1="175.6"
   y1="463.7"
   x2="270.1"
   y2="463.8"
   id="line270" />&#10;<polygon
   points="280.7,463.8 265.7,469.8 269.3,463.8 265.7,457.7 "
   id="polygon270" />&#10;&#10;<line
   class="st12"
   x1="194"
   y1="211.7"
   x2="329.2"
   y2="211.7"
   id="line275" />&#10;<polygon
   points="339.8,211.7 324.9,217.8 328.4,211.7 324.9,205.6 "
   id="polygon275" />&#10;<g
   id="g286">&#10;	<path
   d="M62.1,201.1l9,13.9h0v-13.9h2.2v17.1h-2.5l-9-13.8h0v13.8h-2.2v-17.1H62.1z"
   id="path276" />&#10;	<path
   d="M87.7,218.2c-0.4,0.2-0.8,0.3-1.5,0.3c-0.5,0-0.9-0.1-1.3-0.4s-0.5-0.8-0.5-1.5c-0.6,0.7-1.2,1.2-2,1.5   c-0.7,0.3-1.5,0.4-2.4,0.4c-0.6,0-1.1-0.1-1.6-0.2s-0.9-0.3-1.3-0.6c-0.4-0.3-0.7-0.6-0.9-1.1s-0.3-1-0.3-1.6   c0-0.7,0.1-1.3,0.4-1.7c0.2-0.4,0.6-0.8,0.9-1.1s0.8-0.5,1.3-0.6c0.5-0.1,1-0.3,1.5-0.4c0.6-0.1,1.1-0.2,1.6-0.3   c0.5-0.1,0.9-0.1,1.3-0.2c0.4-0.1,0.7-0.3,0.9-0.5s0.3-0.5,0.3-0.9c0-0.4-0.1-0.8-0.3-1.1c-0.2-0.3-0.4-0.5-0.6-0.6   c-0.3-0.1-0.6-0.2-0.9-0.3c-0.3,0-0.7-0.1-1-0.1c-0.9,0-1.6,0.2-2.2,0.5c-0.6,0.3-0.9,0.9-0.9,1.9h-2c0-0.8,0.2-1.4,0.5-1.9   c0.3-0.5,0.7-1,1.2-1.3c0.5-0.3,1-0.6,1.6-0.7c0.6-0.1,1.3-0.2,2-0.2c0.6,0,1.1,0,1.7,0.1c0.6,0.1,1.1,0.2,1.5,0.5   c0.4,0.2,0.8,0.6,1.1,1c0.3,0.4,0.4,1,0.4,1.7v6.4c0,0.5,0,0.8,0.1,1.1s0.2,0.3,0.6,0.3c0.2,0,0.4,0,0.6-0.1V218.2z M84.4,211.8   c-0.3,0.2-0.6,0.3-1,0.4s-0.9,0.2-1.3,0.2s-0.9,0.1-1.4,0.2c-0.5,0.1-0.9,0.2-1.2,0.3c-0.4,0.2-0.7,0.4-0.9,0.7   c-0.2,0.3-0.3,0.7-0.3,1.2c0,0.3,0.1,0.6,0.2,0.9c0.1,0.2,0.3,0.4,0.5,0.6c0.2,0.1,0.5,0.2,0.8,0.3c0.3,0.1,0.6,0.1,0.9,0.1   c0.7,0,1.2-0.1,1.7-0.3c0.5-0.2,0.9-0.4,1.2-0.7c0.3-0.3,0.5-0.6,0.7-0.9s0.2-0.6,0.2-0.9V211.8z"
   id="path277" />&#10;	<path
   d="M94.9,205.8v1.8h-2.5v7.7c0,0.2,0,0.4,0.1,0.6c0,0.1,0.1,0.3,0.2,0.3s0.3,0.1,0.5,0.2c0.2,0,0.5,0,0.8,0h0.9v1.8h-1.6   c-0.5,0-1,0-1.4-0.1c-0.4-0.1-0.7-0.2-0.9-0.4c-0.2-0.2-0.4-0.5-0.5-0.8c-0.1-0.4-0.2-0.8-0.2-1.4v-7.9h-2.1v-1.8h2.1v-3.7h2v3.7   H94.9z"
   id="path278" />&#10;	<path
   d="M99,205.8v2.6h0c0.5-1,1.1-1.8,1.8-2.2c0.7-0.5,1.6-0.7,2.7-0.7v2.2c-0.8,0-1.5,0.1-2.1,0.3c-0.6,0.2-1,0.6-1.4,1   c-0.4,0.4-0.6,1-0.8,1.6c-0.2,0.6-0.2,1.3-0.2,2.1v5.5h-2v-12.4H99z"
   id="path279" />&#10;	<path
   d="M104.5,209.5c0.3-0.8,0.6-1.5,1.2-2.1s1.1-1,1.9-1.4s1.6-0.5,2.6-0.5c1,0,1.9,0.2,2.6,0.5c0.7,0.3,1.4,0.8,1.9,1.4   c0.5,0.6,0.9,1.3,1.2,2.1s0.4,1.6,0.4,2.6c0,0.9-0.1,1.8-0.4,2.5c-0.3,0.8-0.6,1.5-1.2,2.1c-0.5,0.6-1.1,1-1.9,1.4   c-0.7,0.3-1.6,0.5-2.6,0.5c-1,0-1.8-0.2-2.6-0.5c-0.8-0.3-1.4-0.8-1.9-1.4s-0.9-1.3-1.2-2.1c-0.3-0.8-0.4-1.6-0.4-2.5   C104.1,211.1,104.2,210.3,104.5,209.5z M106.5,214.1c0.2,0.6,0.5,1.1,0.8,1.5c0.4,0.4,0.8,0.7,1.2,0.9c0.5,0.2,1,0.3,1.5,0.3   c0.5,0,1-0.1,1.5-0.3c0.5-0.2,0.9-0.5,1.2-0.9c0.4-0.4,0.6-0.9,0.8-1.5c0.2-0.6,0.3-1.3,0.3-2c0-0.8-0.1-1.4-0.3-2   c-0.2-0.6-0.5-1.1-0.8-1.5c-0.4-0.4-0.8-0.7-1.2-0.9c-0.5-0.2-1-0.3-1.5-0.3c-0.5,0-1,0.1-1.5,0.3c-0.5,0.2-0.9,0.5-1.2,0.9   c-0.4,0.4-0.6,0.9-0.8,1.5c-0.2,0.6-0.3,1.3-0.3,2C106.2,212.8,106.3,213.5,106.5,214.1z"
   id="path280" />&#10;	<path
   d="M120.4,205.8v2h0c0.8-1.5,2.2-2.3,4-2.3c0.8,0,1.5,0.1,2,0.3c0.5,0.2,1,0.5,1.3,0.9s0.6,0.9,0.7,1.4   c0.1,0.6,0.2,1.2,0.2,1.8v8.2h-2v-8.4c0-0.8-0.2-1.4-0.7-1.8c-0.4-0.4-1.1-0.7-1.8-0.7c-0.6,0-1.2,0.1-1.6,0.3   c-0.5,0.2-0.8,0.5-1.1,0.8c-0.3,0.4-0.5,0.8-0.7,1.2c-0.2,0.5-0.2,1-0.2,1.5v7h-2v-12.4H120.4z"
   id="path281" />&#10;	<path
   d="M134,201.1v17.1h-2v-17.1H134z"
   id="path282" />&#10;	<path
   d="M148.2,218.2c-0.4,0.2-0.8,0.3-1.5,0.3c-0.5,0-0.9-0.1-1.3-0.4s-0.5-0.8-0.5-1.5c-0.6,0.7-1.2,1.2-2,1.5   c-0.7,0.3-1.5,0.4-2.4,0.4c-0.6,0-1.1-0.1-1.6-0.2s-0.9-0.3-1.3-0.6c-0.4-0.3-0.7-0.6-0.9-1.1s-0.3-1-0.3-1.6   c0-0.7,0.1-1.3,0.4-1.7c0.2-0.4,0.6-0.8,0.9-1.1s0.8-0.5,1.3-0.6c0.5-0.1,1-0.3,1.5-0.4c0.6-0.1,1.1-0.2,1.6-0.3   c0.5-0.1,0.9-0.1,1.3-0.2c0.4-0.1,0.7-0.3,0.9-0.5s0.3-0.5,0.3-0.9c0-0.4-0.1-0.8-0.3-1.1c-0.2-0.3-0.4-0.5-0.6-0.6   c-0.3-0.1-0.6-0.2-0.9-0.3c-0.3,0-0.7-0.1-1-0.1c-0.9,0-1.6,0.2-2.2,0.5c-0.6,0.3-0.9,0.9-0.9,1.9h-2c0-0.8,0.2-1.4,0.5-1.9   c0.3-0.5,0.7-1,1.2-1.3c0.5-0.3,1-0.6,1.6-0.7c0.6-0.1,1.3-0.2,2-0.2c0.6,0,1.1,0,1.7,0.1c0.6,0.1,1.1,0.2,1.5,0.5   c0.4,0.2,0.8,0.6,1.1,1c0.3,0.4,0.4,1,0.4,1.7v6.4c0,0.5,0,0.8,0.1,1.1s0.2,0.3,0.6,0.3c0.2,0,0.4,0,0.6-0.1V218.2z M144.9,211.8   c-0.3,0.2-0.6,0.3-1,0.4s-0.9,0.2-1.3,0.2s-0.9,0.1-1.4,0.2c-0.5,0.1-0.9,0.2-1.2,0.3c-0.4,0.2-0.7,0.4-0.9,0.7   c-0.2,0.3-0.3,0.7-0.3,1.2c0,0.3,0.1,0.6,0.2,0.9c0.1,0.2,0.3,0.4,0.5,0.6c0.2,0.1,0.5,0.2,0.8,0.3c0.3,0.1,0.6,0.1,0.9,0.1   c0.7,0,1.2-0.1,1.7-0.3c0.5-0.2,0.9-0.4,1.2-0.7c0.3-0.3,0.5-0.6,0.7-0.9s0.2-0.6,0.2-0.9V211.8z"
   id="path283" />&#10;	<path
   d="M158.4,218.3v-2h0c-0.4,0.8-1,1.3-1.7,1.7c-0.7,0.4-1.5,0.5-2.4,0.5c-0.8,0-1.5-0.1-2-0.3c-0.5-0.2-1-0.5-1.3-0.9   c-0.3-0.4-0.6-0.9-0.7-1.4c-0.1-0.6-0.2-1.2-0.2-1.8v-8.2h2v8.4c0,0.8,0.2,1.4,0.7,1.8c0.4,0.4,1.1,0.7,1.8,0.7   c0.6,0,1.2-0.1,1.6-0.3c0.5-0.2,0.8-0.5,1.1-0.8c0.3-0.4,0.5-0.8,0.7-1.2c0.2-0.5,0.2-1,0.2-1.5v-7h2v12.4H158.4z"
   id="path284" />&#10;	<path
   d="M172.7,221.8c-0.9,1-2.4,1.5-4.4,1.5c-0.6,0-1.2-0.1-1.8-0.2c-0.6-0.1-1.1-0.3-1.6-0.6c-0.5-0.3-0.9-0.7-1.2-1.1   c-0.3-0.5-0.5-1-0.5-1.7h2c0,0.4,0.1,0.7,0.3,0.9c0.2,0.3,0.5,0.5,0.8,0.6s0.7,0.3,1,0.3c0.4,0.1,0.7,0.1,1.1,0.1   c0.7,0,1.2-0.1,1.7-0.3c0.5-0.2,0.8-0.6,1.2-1c0.3-0.4,0.5-0.9,0.7-1.5c0.1-0.6,0.2-1.2,0.2-1.9v-0.8h0c-0.4,0.8-0.9,1.3-1.6,1.7   s-1.5,0.5-2.3,0.5c-0.9,0-1.7-0.2-2.4-0.5s-1.3-0.8-1.7-1.4c-0.5-0.6-0.8-1.2-1-2c-0.2-0.8-0.3-1.6-0.3-2.4c0-0.7,0.1-1.5,0.3-2.3   c0.2-0.8,0.5-1.5,1-2.1c0.4-0.6,1-1.2,1.8-1.6c0.7-0.4,1.6-0.6,2.7-0.6c0.8,0,1.5,0.2,2.2,0.5s1.2,0.9,1.5,1.5h0v-1.8h1.9v11.4   C174.1,219.2,173.7,220.7,172.7,221.8z M170.1,216.2c0.5-0.3,0.9-0.6,1.1-1.1c0.3-0.5,0.5-1,0.6-1.5c0.1-0.6,0.2-1.2,0.2-1.7   c0-0.5-0.1-1.1-0.2-1.6c-0.1-0.5-0.3-1-0.6-1.4c-0.3-0.4-0.6-0.8-1.1-1c-0.4-0.3-1-0.4-1.6-0.4c-0.7,0-1.2,0.1-1.7,0.4   c-0.5,0.2-0.8,0.6-1.1,1c-0.3,0.4-0.5,0.9-0.6,1.4c-0.1,0.5-0.2,1.1-0.2,1.7c0,0.6,0.1,1.1,0.2,1.7c0.1,0.6,0.3,1.1,0.6,1.5   c0.3,0.5,0.6,0.8,1.1,1.1c0.4,0.3,1,0.4,1.7,0.4C169.1,216.6,169.7,216.5,170.1,216.2z"
   id="path285" />&#10;	<path
   d="M186,217.5c-0.9,0.7-2.1,1.1-3.5,1.1c-1,0-1.9-0.2-2.6-0.5c-0.7-0.3-1.3-0.8-1.8-1.3c-0.5-0.6-0.9-1.3-1.1-2.1   c-0.2-0.8-0.4-1.7-0.4-2.6c0-0.9,0.1-1.8,0.4-2.6s0.7-1.5,1.2-2s1.1-1,1.8-1.3s1.5-0.5,2.3-0.5c1.1,0,2,0.2,2.7,0.7s1.3,1,1.8,1.7   c0.4,0.7,0.7,1.5,0.9,2.3s0.2,1.6,0.2,2.4h-9.3c0,0.5,0,1.1,0.2,1.5s0.4,0.9,0.7,1.3c0.3,0.4,0.7,0.7,1.2,0.9   c0.5,0.2,1.1,0.3,1.8,0.3c0.9,0,1.6-0.2,2.1-0.6c0.6-0.4,0.9-1,1.1-1.8h2C187.5,215.7,186.9,216.8,186,217.5z M185.5,209.5   c-0.2-0.4-0.4-0.8-0.7-1.1c-0.3-0.3-0.7-0.6-1.1-0.7c-0.4-0.2-0.9-0.3-1.4-0.3c-0.5,0-1,0.1-1.4,0.3c-0.4,0.2-0.8,0.4-1.1,0.8   c-0.3,0.3-0.5,0.7-0.7,1.1c-0.2,0.4-0.3,0.9-0.3,1.4h7.1C185.8,210.4,185.7,209.9,185.5,209.5z"
   id="path286" />&#10;</g>&#10;<line
   class="st12"
   x1="546"
   y1="87.8"
   x2="362.5"
   y2="87.8"
   id="line286" />&#10;<polygon
   points="351.9,87.8 366.8,81.7 363.3,87.8 366.8,93.9 "
   id="polygon286" />&#10;<g
   id="g293">&#10;	<path
   d="M559.1,77.2c0.4,0,0.8,0,1.2,0s0.8,0,1.3,0.1s0.8,0.1,1.2,0.2s0.7,0.2,0.9,0.4c0.6,0.3,1,0.8,1.4,1.4   c0.4,0.6,0.6,1.3,0.6,2.2c0,0.9-0.2,1.7-0.7,2.4c-0.4,0.7-1.1,1.2-1.9,1.5v0c1.1,0.2,1.9,0.7,2.4,1.4c0.6,0.7,0.8,1.6,0.8,2.7   c0,0.6-0.1,1.2-0.3,1.8c-0.2,0.6-0.6,1.1-1,1.6c-0.4,0.5-1,0.8-1.6,1.1c-0.6,0.3-1.4,0.4-2.2,0.4h-8.3V77.2H559.1z M559.8,84.6   c1.3,0,2.2-0.2,2.8-0.7c0.6-0.5,0.9-1.1,0.9-2.1c0-0.6-0.1-1.1-0.3-1.4c-0.2-0.4-0.5-0.6-0.8-0.8c-0.3-0.2-0.7-0.3-1.2-0.4   c-0.4-0.1-0.9-0.1-1.4-0.1h-4.6v5.4H559.8z M560.9,92.4c1,0,1.8-0.3,2.4-0.8c0.6-0.5,0.9-1.3,0.9-2.3c0-0.6-0.1-1-0.3-1.4   c-0.2-0.4-0.5-0.7-0.8-0.9c-0.3-0.2-0.7-0.4-1.2-0.5s-0.9-0.1-1.4-0.1h-5.2v5.9H560.9z"
   id="path287" />&#10;	<path
   d="M577.4,94.3v-2h0c-0.4,0.8-1,1.3-1.7,1.7c-0.7,0.4-1.5,0.5-2.4,0.5c-0.8,0-1.5-0.1-2-0.3c-0.5-0.2-1-0.5-1.3-0.9   c-0.3-0.4-0.6-0.9-0.7-1.4c-0.1-0.6-0.2-1.2-0.2-1.8v-8.2h2v8.4c0,0.8,0.2,1.4,0.7,1.8c0.4,0.4,1.1,0.7,1.8,0.7   c0.6,0,1.2-0.1,1.6-0.3c0.5-0.2,0.8-0.5,1.1-0.8c0.3-0.4,0.5-0.8,0.7-1.2c0.2-0.5,0.2-1,0.2-1.5v-7h2v12.4H577.4z M573,77.6v2.5   h-2.2v-2.5H573z M577.5,77.6v2.5h-2.2v-2.5H577.5z"
   id="path288" />&#10;	<path
   d="M584.2,81.9v2.6h0c0.5-1,1.1-1.8,1.8-2.2c0.7-0.5,1.6-0.7,2.7-0.7v2.2c-0.8,0-1.5,0.1-2.1,0.3c-0.6,0.2-1,0.6-1.4,1   c-0.4,0.4-0.6,1-0.8,1.6c-0.2,0.6-0.2,1.3-0.2,2.1v5.5h-2V81.9H584.2z"
   id="path289" />&#10;	<path
   d="M598.7,93.6c-0.9,0.7-2.1,1.1-3.5,1.1c-1,0-1.9-0.2-2.6-0.5c-0.7-0.3-1.3-0.8-1.8-1.3c-0.5-0.6-0.9-1.3-1.1-2.1   s-0.4-1.7-0.4-2.6c0-0.9,0.1-1.8,0.4-2.6s0.7-1.5,1.2-2c0.5-0.6,1.1-1,1.8-1.3s1.5-0.5,2.3-0.5c1.1,0,2,0.2,2.7,0.7   c0.7,0.5,1.3,1,1.8,1.7c0.4,0.7,0.7,1.5,0.9,2.3s0.2,1.6,0.2,2.4h-9.3c0,0.5,0,1.1,0.2,1.5c0.1,0.5,0.4,0.9,0.7,1.3   s0.7,0.7,1.2,0.9c0.5,0.2,1.1,0.3,1.8,0.3c0.9,0,1.6-0.2,2.1-0.6c0.6-0.4,0.9-1,1.1-1.8h2C600.2,91.8,599.6,92.8,598.7,93.6z    M598.2,85.6c-0.2-0.4-0.4-0.8-0.7-1.1c-0.3-0.3-0.7-0.6-1.1-0.7c-0.4-0.2-0.9-0.3-1.4-0.3c-0.5,0-1,0.1-1.4,0.3   c-0.4,0.2-0.8,0.4-1.1,0.8c-0.3,0.3-0.5,0.7-0.7,1.1s-0.3,0.9-0.3,1.4h7.1C598.5,86.5,598.4,86,598.2,85.6z"
   id="path290" />&#10;	<path
   d="M608.1,81.9v1.8h-2.5v7.7c0,0.2,0,0.4,0.1,0.6c0,0.1,0.1,0.3,0.2,0.3c0.1,0.1,0.3,0.1,0.5,0.2s0.5,0,0.8,0h0.9v1.8h-1.6   c-0.5,0-1,0-1.4-0.1c-0.4-0.1-0.7-0.2-0.9-0.4c-0.2-0.2-0.4-0.5-0.5-0.8c-0.1-0.4-0.2-0.8-0.2-1.4v-7.9h-2.1v-1.8h2.1v-3.7h2v3.7   H608.1z"
   id="path291" />&#10;	<path
   d="M615.7,81.9v1.8h-2.5v7.7c0,0.2,0,0.4,0.1,0.6c0,0.1,0.1,0.3,0.2,0.3c0.1,0.1,0.3,0.1,0.5,0.2c0.2,0,0.5,0,0.8,0h0.9v1.8   h-1.6c-0.5,0-1,0-1.4-0.1c-0.4-0.1-0.7-0.2-0.9-0.4c-0.2-0.2-0.4-0.5-0.5-0.8c-0.1-0.4-0.2-0.8-0.2-1.4v-7.9H609v-1.8h2.1v-3.7h2   v3.7H615.7z"
   id="path292" />&#10;	<path
   d="M626.7,93.6c-0.9,0.7-2.1,1.1-3.5,1.1c-1,0-1.9-0.2-2.6-0.5c-0.7-0.3-1.3-0.8-1.8-1.3c-0.5-0.6-0.9-1.3-1.1-2.1   c-0.2-0.8-0.4-1.7-0.4-2.6c0-0.9,0.1-1.8,0.4-2.6s0.7-1.5,1.2-2c0.5-0.6,1.1-1,1.8-1.3s1.5-0.5,2.3-0.5c1.1,0,2,0.2,2.7,0.7   c0.7,0.5,1.3,1,1.8,1.7c0.4,0.7,0.7,1.5,0.9,2.3s0.2,1.6,0.2,2.4h-9.3c0,0.5,0,1.1,0.2,1.5c0.1,0.5,0.4,0.9,0.7,1.3   c0.3,0.4,0.7,0.7,1.2,0.9c0.5,0.2,1.1,0.3,1.8,0.3c0.9,0,1.6-0.2,2.1-0.6c0.6-0.4,0.9-1,1.1-1.8h2   C628.2,91.8,627.6,92.8,626.7,93.6z M626.2,85.6c-0.2-0.4-0.4-0.8-0.7-1.1c-0.3-0.3-0.7-0.6-1.1-0.7c-0.4-0.2-0.9-0.3-1.4-0.3   c-0.5,0-1,0.1-1.4,0.3c-0.4,0.2-0.8,0.4-1.1,0.8c-0.3,0.3-0.5,0.7-0.7,1.1c-0.2,0.4-0.3,0.9-0.3,1.4h7.1   C626.5,86.5,626.4,86,626.2,85.6z"
   id="path293" />&#10;</g>&#10;<text
   xml:space="preserve"
   id="text294"
   style="font-size:24px;white-space:pre;shape-inside:url(#rect294);fill:#000000;-inkscape-font-specification:Arial;font-family:Arial;font-weight:normal;font-style:normal;font-stretch:normal;font-variant:normal"
   transform="translate(-1.9101767,12.989202)"><tspan
     x="565.79492"
     y="593.90717"
     id="tspan3">Essig</tspan></text><text
   xml:space="preserve"
   id="text295"
   style="font-size:24px;white-space:pre;shape-inside:url(#rect295);fill:#000000"
   transform="translate(-39.731675,16.045484)"><tspan
     x="54.248047"
     y="453.59515"
     id="tspan5"><tspan
       style="font-family:Arial;-inkscape-font-specification:Arial"
       id="tspan4">pH-Elektrode</tspan></tspan></text></svg>
